<mxfile host="app.diagrams.net" modified="2023-03-21T07:48:27.408Z" agent="5.0 (Macintosh; Intel Mac OS X 10_15_7) AppleWebKit/537.36 (KHTML, like Gecko) Chrome/111.0.0.0 Safari/537.36" etag="IerdmmQAHl-q5dymdwvC" version="20.8.1" type="github">
  <diagram id="MtITpHz6bMURJ07ILpVo" name="第 1 页">
    <mxGraphModel dx="1026" dy="660" grid="1" gridSize="10" guides="1" tooltips="1" connect="1" arrows="1" fold="1" page="1" pageScale="1" pageWidth="827" pageHeight="1169" math="0" shadow="0">
      <root>
        <mxCell id="0" />
        <mxCell id="1" parent="0" />
        <mxCell id="tvpSU6sHkQA7kPhEmo6M-15" value="" style="rounded=1;whiteSpace=wrap;html=1;" vertex="1" parent="1">
          <mxGeometry x="230" y="54" width="500" height="260" as="geometry" />
        </mxCell>
        <mxCell id="tvpSU6sHkQA7kPhEmo6M-3" style="edgeStyle=orthogonalEdgeStyle;rounded=0;orthogonalLoop=1;jettySize=auto;html=1;entryX=0;entryY=0.5;entryDx=0;entryDy=0;" edge="1" parent="1" source="tvpSU6sHkQA7kPhEmo6M-1" target="tvpSU6sHkQA7kPhEmo6M-2">
          <mxGeometry relative="1" as="geometry" />
        </mxCell>
        <mxCell id="tvpSU6sHkQA7kPhEmo6M-4" value="Action" style="edgeLabel;html=1;align=center;verticalAlign=middle;resizable=0;points=[];" vertex="1" connectable="0" parent="tvpSU6sHkQA7kPhEmo6M-3">
          <mxGeometry x="-0.25" y="1" relative="1" as="geometry">
            <mxPoint as="offset" />
          </mxGeometry>
        </mxCell>
        <mxCell id="tvpSU6sHkQA7kPhEmo6M-1" value="θ_i" style="rounded=0;whiteSpace=wrap;html=1;" vertex="1" parent="1">
          <mxGeometry x="380" y="240" width="60" height="60" as="geometry" />
        </mxCell>
        <mxCell id="tvpSU6sHkQA7kPhEmo6M-8" style="edgeStyle=orthogonalEdgeStyle;rounded=0;orthogonalLoop=1;jettySize=auto;html=1;exitX=0.5;exitY=0;exitDx=0;exitDy=0;entryX=1;entryY=0.5;entryDx=0;entryDy=0;" edge="1" parent="1" source="tvpSU6sHkQA7kPhEmo6M-2" target="tvpSU6sHkQA7kPhEmo6M-7">
          <mxGeometry relative="1" as="geometry" />
        </mxCell>
        <mxCell id="tvpSU6sHkQA7kPhEmo6M-9" value="Response" style="edgeLabel;html=1;align=center;verticalAlign=middle;resizable=0;points=[];" vertex="1" connectable="0" parent="tvpSU6sHkQA7kPhEmo6M-8">
          <mxGeometry x="0.0933" y="-1" relative="1" as="geometry">
            <mxPoint x="-1" y="25" as="offset" />
          </mxGeometry>
        </mxCell>
        <mxCell id="tvpSU6sHkQA7kPhEmo6M-25" style="edgeStyle=orthogonalEdgeStyle;rounded=0;orthogonalLoop=1;jettySize=auto;html=1;exitX=0.5;exitY=1;exitDx=0;exitDy=0;entryX=0.5;entryY=0;entryDx=0;entryDy=0;" edge="1" parent="1" source="tvpSU6sHkQA7kPhEmo6M-2" target="tvpSU6sHkQA7kPhEmo6M-24">
          <mxGeometry relative="1" as="geometry" />
        </mxCell>
        <mxCell id="tvpSU6sHkQA7kPhEmo6M-10" style="edgeStyle=orthogonalEdgeStyle;rounded=0;orthogonalLoop=1;jettySize=auto;html=1;exitX=0;exitY=0.5;exitDx=0;exitDy=0;entryX=0;entryY=0.5;entryDx=0;entryDy=0;" edge="1" parent="1" source="tvpSU6sHkQA7kPhEmo6M-7" target="tvpSU6sHkQA7kPhEmo6M-33">
          <mxGeometry relative="1" as="geometry" />
        </mxCell>
        <mxCell id="tvpSU6sHkQA7kPhEmo6M-11" value="Update" style="edgeLabel;html=1;align=center;verticalAlign=middle;resizable=0;points=[];" vertex="1" connectable="0" parent="tvpSU6sHkQA7kPhEmo6M-10">
          <mxGeometry x="0.2897" y="1" relative="1" as="geometry">
            <mxPoint as="offset" />
          </mxGeometry>
        </mxCell>
        <mxCell id="tvpSU6sHkQA7kPhEmo6M-7" value="Accumulated Rewards &lt;br&gt;Fi" style="rounded=0;whiteSpace=wrap;html=1;" vertex="1" parent="1">
          <mxGeometry x="440" y="80" width="120" height="60" as="geometry" />
        </mxCell>
        <mxCell id="tvpSU6sHkQA7kPhEmo6M-12" value="θ_j" style="rounded=0;whiteSpace=wrap;html=1;" vertex="1" parent="1">
          <mxGeometry x="380" y="321" width="60" height="60" as="geometry" />
        </mxCell>
        <mxCell id="tvpSU6sHkQA7kPhEmo6M-13" value="θ_k" style="rounded=0;whiteSpace=wrap;html=1;" vertex="1" parent="1">
          <mxGeometry x="380" y="430" width="60" height="60" as="geometry" />
        </mxCell>
        <mxCell id="tvpSU6sHkQA7kPhEmo6M-14" value="&lt;span style=&quot;font-size: 16px;&quot;&gt;......&lt;/span&gt;" style="text;html=1;strokeColor=none;fillColor=none;align=center;verticalAlign=middle;whiteSpace=wrap;rounded=0;fontSize=16;" vertex="1" parent="1">
          <mxGeometry x="379" y="387" width="60" height="30" as="geometry" />
        </mxCell>
        <mxCell id="tvpSU6sHkQA7kPhEmo6M-16" value="Policy Group_i" style="text;html=1;strokeColor=none;fillColor=none;align=center;verticalAlign=middle;whiteSpace=wrap;rounded=0;" vertex="1" parent="1">
          <mxGeometry x="610" y="70" width="110" height="30" as="geometry" />
        </mxCell>
        <mxCell id="tvpSU6sHkQA7kPhEmo6M-20" style="rounded=0;orthogonalLoop=1;jettySize=auto;html=1;exitX=0.5;exitY=0;exitDx=0;exitDy=0;entryX=0;entryY=0.5;entryDx=0;entryDy=0;" edge="1" parent="1" source="tvpSU6sHkQA7kPhEmo6M-33" target="tvpSU6sHkQA7kPhEmo6M-1">
          <mxGeometry relative="1" as="geometry" />
        </mxCell>
        <mxCell id="tvpSU6sHkQA7kPhEmo6M-21" style="edgeStyle=none;rounded=0;orthogonalLoop=1;jettySize=auto;html=1;exitX=0.5;exitY=0;exitDx=0;exitDy=0;entryX=0;entryY=0.5;entryDx=0;entryDy=0;" edge="1" parent="1" source="tvpSU6sHkQA7kPhEmo6M-33" target="tvpSU6sHkQA7kPhEmo6M-12">
          <mxGeometry relative="1" as="geometry" />
        </mxCell>
        <mxCell id="tvpSU6sHkQA7kPhEmo6M-22" style="edgeStyle=none;rounded=0;orthogonalLoop=1;jettySize=auto;html=1;exitX=0.5;exitY=0;exitDx=0;exitDy=0;entryX=0;entryY=0.5;entryDx=0;entryDy=0;" edge="1" parent="1" source="tvpSU6sHkQA7kPhEmo6M-33" target="tvpSU6sHkQA7kPhEmo6M-13">
          <mxGeometry relative="1" as="geometry" />
        </mxCell>
        <mxCell id="tvpSU6sHkQA7kPhEmo6M-35" style="edgeStyle=orthogonalEdgeStyle;rounded=0;orthogonalLoop=1;jettySize=auto;html=1;exitX=1;exitY=0.5;exitDx=0;exitDy=0;startArrow=none;" edge="1" parent="1" source="tvpSU6sHkQA7kPhEmo6M-37" target="tvpSU6sHkQA7kPhEmo6M-33">
          <mxGeometry relative="1" as="geometry" />
        </mxCell>
        <mxCell id="tvpSU6sHkQA7kPhEmo6M-19" value="Bottom Model" style="rounded=0;whiteSpace=wrap;html=1;" vertex="1" parent="1">
          <mxGeometry x="40" y="245.23" width="120" height="250" as="geometry" />
        </mxCell>
        <mxCell id="tvpSU6sHkQA7kPhEmo6M-26" style="edgeStyle=orthogonalEdgeStyle;rounded=0;orthogonalLoop=1;jettySize=auto;html=1;exitX=0.5;exitY=1;exitDx=0;exitDy=0;entryX=0.5;entryY=1;entryDx=0;entryDy=0;" edge="1" parent="1" source="tvpSU6sHkQA7kPhEmo6M-24" target="tvpSU6sHkQA7kPhEmo6M-19">
          <mxGeometry relative="1" as="geometry">
            <Array as="points">
              <mxPoint x="604" y="530" />
              <mxPoint x="140" y="530" />
            </Array>
          </mxGeometry>
        </mxCell>
        <mxCell id="tvpSU6sHkQA7kPhEmo6M-24" value="User feature &amp;amp;&lt;br&gt;Context feature" style="rounded=0;whiteSpace=wrap;html=1;" vertex="1" parent="1">
          <mxGeometry x="544" y="430" width="120" height="60" as="geometry" />
        </mxCell>
        <mxCell id="tvpSU6sHkQA7kPhEmo6M-28" value="" style="group" vertex="1" connectable="0" parent="1">
          <mxGeometry x="544" y="210" width="156" height="90" as="geometry" />
        </mxCell>
        <mxCell id="tvpSU6sHkQA7kPhEmo6M-27" value="User_i" style="rounded=0;whiteSpace=wrap;html=1;" vertex="1" parent="tvpSU6sHkQA7kPhEmo6M-28">
          <mxGeometry x="36" width="120" height="60" as="geometry" />
        </mxCell>
        <mxCell id="tvpSU6sHkQA7kPhEmo6M-18" value="User_i" style="rounded=0;whiteSpace=wrap;html=1;" vertex="1" parent="tvpSU6sHkQA7kPhEmo6M-28">
          <mxGeometry x="26" y="10" width="120" height="60" as="geometry" />
        </mxCell>
        <mxCell id="tvpSU6sHkQA7kPhEmo6M-17" value="User_i" style="rounded=0;whiteSpace=wrap;html=1;" vertex="1" parent="tvpSU6sHkQA7kPhEmo6M-28">
          <mxGeometry x="16" y="20" width="120" height="60" as="geometry" />
        </mxCell>
        <mxCell id="tvpSU6sHkQA7kPhEmo6M-2" value="User_i" style="rounded=0;whiteSpace=wrap;html=1;" vertex="1" parent="tvpSU6sHkQA7kPhEmo6M-28">
          <mxGeometry y="30" width="120" height="60" as="geometry" />
        </mxCell>
        <mxCell id="tvpSU6sHkQA7kPhEmo6M-30" value="" style="shape=image;verticalLabelPosition=bottom;labelBackgroundColor=default;verticalAlign=top;aspect=fixed;imageAspect=0;image=data:image/png,iVBORw0KGgoAAAANSUhEUgAAAjgAAABECAYAAACMCk9lAAAMP2lDQ1BJQ0MgUHJvZmlsZQAASImVVwdYU8kWnluSkEBoAQSkhN4EkRpASggt9I4gKiEJEEqMgaBiRxcVXLuIgA1dFVGwAmJBETuLYu+LBRVlXSzYlTcpoOu+8r3zfXPvf/85858z584tA4DacY5IlIuqA5AnLBDHBvvTxyWn0ElPAQIwQAY0YMPh5ouY0dHhANrQ+e/27jr0hnbFXqr1z/7/aho8fj4XACQa4nRePjcP4gMA4NVckbgAAKKUN5taIJJi2ICWGCYI8SIpzpTjailOl+M9Mp/4WBbE7QAoqXA44kwAVC9Bnl7IzYQaqv0QOwp5AiEAanSIffLyJvMgToPYGvqIIJbqM9J/0Mn8m2b6sCaHkzmM5XORmVKAIF+Uy5n+f5bjf1termQohiVsKlnikFjpnGHdbuZMDpNiFYj7hOmRURBrQvxBwJP5Q4xSsiQhCXJ/1ICbz4I1AzoQO/I4AWEQG0AcJMyNDFfw6RmCIDbEcIWg0wQF7HiIdSFexM8PjFP4bBJPjlXEQhszxCymgj/LEcviSmPdl+QkMBX6r7P4bIU+plqUFZ8EMQVi80JBYiTEqhA75OfEhSl8xhZlsSKHfMSSWGn+5hDH8oXB/nJ9rDBDHBSr8C/Nyx+aL7YpS8COVOB9BVnxIfL6YO1cjix/OBfsEl/ITBjS4eePCx+aC48fECifO/aML0yIU+h8EBX4x8rH4hRRbrTCHzfl5wZLeVOIXfIL4xRj8cQCuCDl+niGqCA6Xp4nXpTNCY2W54MvB+GABQIAHUhgSweTQTYQdPY19cEreU8Q4AAxyAR8YK9ghkYkyXqE8BgHisCfEPFB/vA4f1kvHxRC/uswKz/agwxZb6FsRA54AnEeCAO58FoiGyUcjpYIHkNG8I/oHNi4MN9c2KT9/54fYr8zTMiEKxjJUES62pAnMZAYQAwhBhFtcH3cB/fCw+HRDzYnnIF7DM3juz/hCaGL8JBwjdBNuDVJUCz+KcsI0A31gxS1SP+xFrgl1HTF/XFvqA6VcR1cH9jjLjAOE/eFkV0hy1LkLa0K/Sftv83gh7uh8CM7klHyCLIf2frnkaq2qq7DKtJa/1gfea7pw/VmDff8HJ/1Q/V58Bz2sye2CNuPncFOYOewI1gToGOtWDPWgR2V4uHV9Vi2uoaixcryyYE6gn/EG7qz0krmO9Y59jp+kfcV8KdJ39GANVk0XSzIzCqgM+EXgU9nC7kOo+hOjk7OAEi/L/LX15sY2XcD0en4zs3/AwDv1sHBwcPfudBWAPa6w8f/0HfOmgE/HcoAnD3ElYgL5RwuPRDgW0INPml6wAiYAWs4HyfgBryAHwgEoSAKxINkMBFmnwXXuRhMBTPBPFACysBysAZUgo1gC9gBdoN9oAkcASfAaXABXALXwB24enrAC9AP3oHPCIKQECpCQ/QQY8QCsUOcEAbigwQi4UgskoykIZmIEJEgM5H5SBmyEqlENiO1yF7kEHICOYd0IbeQB0gv8hr5hGKoCqqFGqKW6GiUgTLRMDQenYBmolPQInQBuhStQGvQXWgjegK9gF5Du9EX6AAGMGVMBzPB7DEGxsKisBQsAxNjs7FSrByrweqxFnifr2DdWB/2ESfiNJyO28MVHIIn4Fx8Cj4bX4JX4jvwRrwdv4I/wPvxbwQqwYBgR/AksAnjCJmEqYQSQjlhG+Eg4RR8lnoI74hEog7RiugOn8VkYjZxBnEJcT2xgXic2EV8RBwgkUh6JDuSNymKxCEVkEpI60i7SK2ky6Qe0gclZSVjJSelIKUUJaFSsVK50k6lY0qXlZ4qfSarky3InuQoMo88nbyMvJXcQr5I7iF/pmhQrCjelHhKNmUepYJSTzlFuUt5o6ysbKrsoRyjLFCeq1yhvEf5rPID5Y8qmiq2KiyVVBWJylKV7SrHVW6pvKFSqZZUP2oKtYC6lFpLPUm9T/2gSlN1UGWr8lTnqFapNqpeVn2pRlazUGOqTVQrUitX2692Ua1Pnaxuqc5S56jPVq9SP6R+Q31Ag6YxRiNKI09jicZOjXMazzRJmpaagZo8zQWaWzRPaj6iYTQzGovGpc2nbaWdovVoEbWstNha2VplWru1OrX6tTW1XbQTtadpV2kf1e7WwXQsddg6uTrLdPbpXNf5NMJwBHMEf8TiEfUjLo94rztS10+Xr1uq26B7TfeTHl0vUC9Hb4Vek949fVzfVj9Gf6r+Bv1T+n0jtUZ6jeSOLB25b+RtA9TA1iDWYIbBFoMOgwFDI8NgQ5HhOsOThn1GOkZ+RtlGq42OGfUa04x9jAXGq41bjZ/TtelMei69gt5O7zcxMAkxkZhsNuk0+WxqZZpgWmzaYHrPjGLGMMswW23WZtZvbmweYT7TvM78tgXZgmGRZbHW4ozFe0sryyTLhZZNls+sdK3YVkVWdVZ3ranWvtZTrGusr9oQbRg2OTbrbS7Zorautlm2VbYX7VA7NzuB3Xq7rlGEUR6jhKNqRt2wV7Fn2hfa19k/cNBxCHcodmhyeDnafHTK6BWjz4z+5ujqmOu41fHOGM0xoWOKx7SMee1k68R1qnK66kx1DnKe49zs/MrFzoXvssHlpivNNcJ1oWub61c3dzexW71br7u5e5p7tfsNhhYjmrGEcdaD4OHvMcfjiMdHTzfPAs99nn952XvleO30ejbWaix/7Naxj7xNvTnem727feg+aT6bfLp9TXw5vjW+D/3M/Hh+2/yeMm2Y2cxdzJf+jv5i/4P+71merFms4wFYQHBAaUBnoGZgQmBl4P0g06DMoLqg/mDX4BnBx0MIIWEhK0JusA3ZXHYtuz/UPXRWaHuYSlhcWGXYw3DbcHF4SwQaERqxKuJupEWkMLIpCkSxo1ZF3Yu2ip4SfTiGGBMdUxXzJHZM7MzYM3G0uElxO+PexfvHL4u/k2CdIEloS1RLTE2sTXyfFJC0Mql73Ohxs8ZdSNZPFiQ3p5BSElO2pQyMDxy/ZnxPqmtqSer1CVYTpk04N1F/Yu7Eo5PUJnEm7U8jpCWl7Uz7woni1HAG0tnp1en9XBZ3LfcFz4+3mtfL9+av5D/N8M5YmfEs0ztzVWZvlm9WeVafgCWoFLzKDsnemP0+Jypne85gblJuQ55SXlreIaGmMEfYPtlo8rTJXSI7UYmoe4rnlDVT+sVh4m35SP6E/OYCLfgj3yGxlvwieVDoU1hV+GFq4tT90zSmCad1TLedvnj606Kgot9m4DO4M9pmmsycN/PBLOaszbOR2emz2+aYzVkwp2du8Nwd8yjzcub9XuxYvLL47fyk+S0LDBfMXfDol+Bf6kpUS8QlNxZ6Ldy4CF8kWNS52HnxusXfSnml58scy8rLvizhLjn/65hfK34dXJqxtHOZ27INy4nLhcuvr/BdsWOlxsqilY9WRaxqXE1fXbr67ZpJa86Vu5RvXEtZK1nbXRFe0bzOfN3ydV8qsyqvVflXNVQbVC+ufr+et/7yBr8N9RsNN5Zt/LRJsOnm5uDNjTWWNeVbiFsKtzzZmrj1zG+M32q36W8r2/Z1u3B7947YHe217rW1Ow12LqtD6yR1vbtSd13aHbC7ud6+fnODTkPZHrBHsuf53rS91/eF7Wvbz9hff8DiQPVB2sHSRqRxemN/U1ZTd3Nyc9eh0ENtLV4tBw87HN5+xORI1VHto8uOUY4tODbYWtQ6cFx0vO9E5olHbZPa7pwcd/Jqe0x756mwU2dPB50+eYZ5pvWs99kj5zzPHTrPON90we1CY4drx8HfXX8/2OnW2XjR/WLzJY9LLV1ju45d9r184krAldNX2VcvXIu81nU94frNG6k3um/ybj67lXvr1e3C25/vzL1LuFt6T/1e+X2D+zV/2PzR0O3WffRBwIOOh3EP7zziPnrxOP/xl54FT6hPyp8aP6195vTsSG9Q76Xn45/3vBC9+NxX8qfGn9UvrV8e+Mvvr47+cf09r8SvBl8veaP3Zvtbl7dtA9ED99/lvfv8vvSD3ocdHxkfz3xK+vT089QvpC8VX22+tnwL+3Z3MG9wUMQRc2S/AhhsaEYGAK+3A0BNBoAG92eU8fL9n8wQ+Z5VhsB/wvI9oszcAKiH/+8xffDv5gYAe7bC7RfUV0sFIJoKQLwHQJ2dh9vQXk22r5QaEe4DNkV+Tc9LB//G5HvOH/L++Qykqi7g5/O/AOdxfFHM3PBIAAAAimVYSWZNTQAqAAAACAAEARoABQAAAAEAAAA+ARsABQAAAAEAAABGASgAAwAAAAEAAgAAh2kABAAAAAEAAABOAAAAAAAAAJAAAAABAAAAkAAAAAEAA5KGAAcAAAASAAAAeKACAAQAAAABAAACOKADAAQAAAABAAAARAAAAABBU0NJSQAAAFNjcmVlbnNob3QzI6KiAAAACXBIWXMAABYlAAAWJQFJUiTwAAAB1WlUWHRYTUw6Y29tLmFkb2JlLnhtcAAAAAAAPHg6eG1wbWV0YSB4bWxuczp4PSJhZG9iZTpuczptZXRhLyIgeDp4bXB0az0iWE1QIENvcmUgNi4wLjAiPgogICA8cmRmOlJERiB4bWxuczpyZGY9Imh0dHA6Ly93d3cudzMub3JnLzE5OTkvMDIvMjItcmRmLXN5bnRheC1ucyMiPgogICAgICA8cmRmOkRlc2NyaXB0aW9uIHJkZjphYm91dD0iIgogICAgICAgICAgICB4bWxuczpleGlmPSJodHRwOi8vbnMuYWRvYmUuY29tL2V4aWYvMS4wLyI+CiAgICAgICAgIDxleGlmOlBpeGVsWURpbWVuc2lvbj42ODwvZXhpZjpQaXhlbFlEaW1lbnNpb24+CiAgICAgICAgIDxleGlmOlBpeGVsWERpbWVuc2lvbj41Njg8L2V4aWY6UGl4ZWxYRGltZW5zaW9uPgogICAgICAgICA8ZXhpZjpVc2VyQ29tbWVudD5TY3JlZW5zaG90PC9leGlmOlVzZXJDb21tZW50PgogICAgICA8L3JkZjpEZXNjcmlwdGlvbj4KICAgPC9yZGY6UkRGPgo8L3g6eG1wbWV0YT4KWfHv3AAAABxpRE9UAAAAAgAAAAAAAAAiAAAAKAAAACIAAAAiAAAp4tzW39YAACmuSURBVHgB7F0HuBbF1d5LFVBEAyigAjEGGxZiQSyAoAEkahJRY+/RPzH5I0bTLIDGjiImJlGjeTRqxPJbQEGNipqYxNgLNkBBrBhjARS4858zZ94zZ3b3u9yLqBfdfZ5vTz9n5szs7Ozu7H51jrasZGNmneUTwxEDPLaqC4ToGgugHrrMkRXsxCUUbIAUL2gQo4rfvPP/3HPPZ3379s0GDRyUTbtzGjUYtWld823/5557jsq7WTZo0MBs2jQqr9maY/+b8cLz2WZ9N/X5nTp1WnX8VeOP77HSV02PBeph8z3+zOFWQFEFFRCjGv+b9/ivpUPjNYP+V4cJTuEwsDMY7WURKehHEWFJDaOkwAaDLXLToCo+9Zd0WhgTWZIvK/yc8j9y5Mhs8uTJ2d1335XtvPMQ0w9C4dDcgFrOkvp8Bu0/cuRuVN4pVN67s8E7D06n4Z9B/HicNK7+Mb8l5W0G7R+LgAYGbJ7t39T8x/qVtJcVar+u6q8nPc4P0gGojJJ8NsPjzzZx4XxlhVovrahIQQKqXlX/Qj5XUPvXuXrylDuPav65T7I4nGgtP2lP1qNf4ibHyJHe3PNKBJZVxV858n/e+PHZT0ePznYaODC79957Cx3CtqlvfNp9nu0/nso7mso7cCcq731UXrPZsjaX/iflPT4bOHAnya8pL6O2zF6UY+TIqFIisKzmUv/SOvpayM6WOVYuKhTkJPK8EoFlVfVfOcYf22ZV+6NzV/1f7+BIKvLdxNIWD4krYWGoFRHt7X1F5Lvm7Czv0NIWr+L7DJSk5PPIPz/eGT5seNa1a9fs4Uceznp07xFOuFTAZtj+06ZOzYbvNiLr0rlL9sgjj2Tdu3ev0aFsgi1eQ900imivmPrz477hw4ZlXbp0zR595NGsW/duUoCSIn0e7R+ykSRlRda/ZmWr+ueuKjlTmnm64CS8GR5/dNVc4+50vkEtbfGkqwUCQPR0X9W/2Ee+RPn3Exx7lSIHCHcW+4Bbu4vvRbhTE7kpB11NISvywVbjkUsVP14lrYz5nzDhwozvMNxw/aRsq6230WZXpJm1/4UTJmTnjT8/u37SddnW22yT3KVsjvmfMPGCbPx5F2STKL9bb701jszkVCa5liNS8w6kmeUfxQKsjv+V+/jXc0XokWhXhVX/o1RQEqrzn3YJi3yax7/cwfHjot9JF/UdkoqAeYstTQ08MUmIokFBzAxajMoBFWWzKj5noVFbktOEKJoXxJr0Kv+aCk5b1f+KnacGJ+lTCVE0KIg16VX/01Rw2qr+V+w8NThJn0qIokFBrEmv+p+mgtP2Beh/dbQEh2/imc1XMdCmKwS2lbKS0DWE8EpiRxOY+C4VvBSWFqlHMWU93qiENUIIu4ZQjL1tFb/Kf9X/cKSH44UOKtsr5HCBjCnGeauOv2r8SbqB7xW8k94S+oztOqohStX4a480JKo6/mxWpMsgN0wxztvyjz90B6eevJiZK8ZA8ez3NqRhNxpN7E2ZxYFI/T5RjO5rsKPCMrDEngnetJ4i9ftEUdR4X4MdFZaBJfZM8FbFlzzYITJJVBATqMGOCsvAEvsq/5Ktqv+FXiO9w++TjhI7VQ12VFgGltgzwVuVf8lDdfz7zuD7SNJRQnoI1GBHhWVgiT0TvH1J+l9cZJxkQXKgeyxKIp2yNVuqV4JEt2WzVWMQFQ0zoFV86pDUI6v8V/2PuoGOTcUjpcCJh1V1/BWvFk26YqIMM6DV+FONP9X4u1Kef0oeUdmDmvHy4bSh8cBPOYObcvNgTaDmhMkPKlX8Kv9V/8OhZGF1/NU6MihLnBxspd2nGn989qrxtzr/0PFRfohQ5/CCUmnDd5Wa0fGnj6j8eBCOe4wNDFNWoMAEtAYeFwHEgKqWMAxhUOimrECBCQhlhSKAGDAnDqSRGhS6KStQYAJCWaEIIAbMiQNppAaFbsoKFJiAUFYoAogBc+JAGqlBoZuyAgUmIJQVigBiwJw4kEZqUOimrECBCQhlhSKAGDAnDqSRGhS6KStQYAJCWaEIIAbMiQNppAaFbsoKFJiAUFYoAogBc+JAGqlBoZuyAgUmIJQVigBiwJw4kEZqUOimrECBCQhlhSKAGDAnDqSRGhS6KStQYAJCWaEIIAbMiQNppAaFbsoKFJiAUFYoAogBc+JAGqlBoZuyAgUmIJQVigBiwJw4kEZqUOimrECBCRiU33///Wz69OnZ3Lmv0G9e9vb8+dmQwYOz744alZ7EEztDGHR54sMGZ024A1R5wjCEQaGbsgIFJiCUFYoAYsCcOJBGalDopqxAgQkIZYUigBgwJw6kkRoUuikrUGACQlmhCPxeFxlDGVCVi4gxLwqJU3SR50RaMSCApZ6FKSq1FYuSPCfSigEBrOLXzICkqHaiipI8J9KKAQGsGR39q7ZiUZLnRFoxIIBV/JoZkBTVTlRRkudEWjEggDWjV+0vKaqdqKIkz4m0YkAAV6L8P/rYY9lp48ZlU6ZMyRYtWiQlDzce/Ic8772HePZORKykYkAAyWLybbdla3Xrnm31jX5JNkTFKCZS9E/LzOtGWjEggNY8h4tKbcWiJM+JtGJAAHMxLSkqUXHGjBnZs88+m33729/2alECqzwn0ooBAYRpCRSV2opWEtfgqCOIGfLGHYNwPEuCWLim20AAyLbFTaUeUcoogseQtyp+lX/qC1X/00MBBx2OFDlOQAEKN79XqUeUMmrgMeStOv6q44/6QjM9/k4bOy4bM25MtnTJUumuuf0hhxySXX755cpF75arcKVUzm29ePGS7OCDD8quueZaggdnV1xB9s20/nHahroAmioZVKUeUapEg2W8Lfv4P/ZHx2YXTbwo22OPPbJrr70mW2WVdmJasteIKzC+hIFnQOGGv2pImSXlKrkrw1qwA0wt4wd8cgscSR39pXZHy/kiMjYmZIgLCL7AKj4tq/Qfl6rynywwrfpfdfzRYOLHEz90lI8fdjQp1wAX0FrQGEfrCKvjry778IP3s3vvvz/rttbaWb9+dDeE0rUixv/r6cOXo0btHZNOYx1dsXua/XOcm266Kdtzzz0IjR+JaCj+goUL6E7Ed7NpU+/I1l13vezhh//lv9Beo4UpSAhUdnb6krT/f/7zDv1h8eDsiSefzHbaYYfsNrrztVrHjs2j/9NB6LuEP9i5a2hLKsLcBjdosiO/2DxANYKCMlIkESuhSKpcQkGzir98+X+Gbi/+9913s+22265qf3SmeCCU9LiUBZOq/y1f/0P+fFaVUCRNdgkFzSr/zS//kyZNyo75/jHZ/P/Mz7qv3S2b8+rcrEWLFkkrov2a0v4ff/xx9vUNNshefmUOVZo8sBOdbIj7AQMGZA888IBMbfQEJzK7R3w+E47aa1R24403ZC1btaT1PPfLmGiVS/Bo3/zy74uLApaU/R//+Ef22uuvZ61btcratGmTtW3Tlu7AtM1at2lN7dQyW7JkSfbxRx9li+j3EeV8Mf04T0OHDs3at2+v7me+9BJNXrfK3nvv3WwY/W3PlMm3ZXVo5wbis4NErIQiJaVOWdAsO/4Lj6hEGSbiKOHBSxqjlHp13qvZZZdeSv/382j26KOPZq/Om+dn8T3WXSfbhj45/y3692n+c8a2bdt6+3323TfjA+KVl2dn66yzrvpc3vjiINbFY7TTqweNEJEkVmAnvCbUv7nGX/jRouxBOvCn0D9/33LLrdlLM1/KhgwZkt11112hs0mNkZUvWv2/7O1f1V9OhejfFiZ9PQgS3hfg+P+s2n8uTWZ69+pFJ8n4+OjBBx7Mttt+QMn9Dkl2kusG8v+X667L9t13nzCxybJevXtl39ptZLbxJpvQf+F1zzquvjr9DcvWWft2/LhEZjfeN+1q1X/caeOyk0862Uc999xz/Z/xMpGUqYH2X/Dhh9lf77kne3n2bD9paNe+XbZhnz7Z9tvvkK299trip4H4hVi+JI2PH9RzQEqvvk389997L+tC/x/4EU1e/Ia7E0IEXjCg0nMW2Rvn88qrrswO2H9/T2F38//R3bJvf8frjT7++Oycc84hUe34sLNQtKMNyxJeA/m3fhTnGzhx4yXHYVNUES+wVH0gPDCCxYsXu3POPsetuuqqVDb/HwxcRs4Q9y3h8bcF6bfaaqs5es7pDjvsMNeqZQuv99BDD/H3B/MFaXR8WEaoziKrFDN6iiriLSxVq/5F19aqKI0co6eoIp8o/uzZs93YcWPdkJ13dvSM1Oee8x/6j6MJDvk3sRRV5BPFj3VsCDOxFFWkik8ZsNlYmfpfQ60eZaZ2iipStf9K1v4333yzjPVyjvJjzs9OPDE2dwEzba2oIkn78zjGY9fGG2/s7n/ggfTAaMhvQSaMW2+91bUI4+Huu+9u/JXHZyscf/Nee80dc/QxruPqHXU8xbjK579WrVq6vffe2z3z7DM1ooNtYimqiFeyFOJ7nhXAncJy4ceLP3bHHnuso8XBbpdddnFbbL5Zofxyvs5cn6/3cXTXxu2x557u8MMPd6/Nm6f1t/F/+tOfqo9rrr4mlKA8vhZPEaOnqCJey1KNqT/fbkq2xEEiyROiafVZg25pucGDB2sluaE5SVv26+eOOOJwd+QRR7gtttjCtWzVKkx2ZKITO0TmbrzpRh8s7zstQXn8VCdSeW1PlwSwLItHT8BE2rAOdHG8RG2PRVIVLcviqqCISBvWUWV36WWX+TZp07q1tg06L090ZIKDcopdw76bFj+v7emSAJZl8VgTYCJtWAe6qFfU9lgkVdGyLK4Kioi0YR1VDhOTqO2xSKqiZVlcFRQRacM6qlzF96mI2fJYJDVRlmVxVVBEpA3rqPKXMv9nnnmmH2t0nOEJyUYb+aT4vJUkz7IsHjPp3JxX5ji62eB9P//CC1ZUExdf0aPHAvnhgg/dOuus4/2t17One+c/78QyLsMjPZ1w6667rlwwUv1G7jbSTZs2zb388svuwQcfdAcccABduLf0vlddtYO74frro+9YHI1iWRZXBUVE2rCOKje6/+36zW9qXficTI8T3d133x0dKVYen29u9O/f39e3a9eu7t133/UWeW1PlxTesiyuYRURacM6dLsH+rUV6wvJCQwyLVqdeOLPfOXk7kCdW3PNNd2NN8qERWKJzQcfvO+OO240dVS+w4O7PAIvmjgRxfIxxMLEUlQRo89oLb6VpTopZd01rf5iWdtbLFuqk1IrPj7PdpcuXUqO6+kAnCptZPK+s7+DY+MC/2LUH7X5vPJfxUcG0NMBhZ9S0GVY9T/JjcmQoorYhPmc5RiGhA2giFLKqH+C/B988CHJuQAXsc8//xwFSCOmVMPxJ154EV0c17nttutvFQ1e21uMG3VOPvkUHQ/TcxW7rN3/HnvsUXpK0UHPX6eddlooQ/TNjFtvu5Xu4sQLy0nXXef9BmUPUotUIjKjoagi1oDwWnxWgwxQTEH1pAmenZDusMP2wQIaxoX6Eh/Y3377lDBJqnM//vGPwQ4QfgCFnVLWpHb+Y12sPuPRG01wIuHVlFQkb610qlHv/vmvf9KERR4zoTPzbUofIyjjthKcTJ16h6Pnk6GDyaz85z//udhAqQbMx0/oPFEj/oqsfz5kLDZJmln8vn03TWbqQ4bsLMXVSigSq5HDUg10xKCUCIkIdL79VQDfaqcIJAWYalTxk3zkiUBX+c93oyRRpjvm+HkzolONqv8l+SBim2228eO6njDDxeyZZ5xlsplYmaTm+MZi5/B46qyzzzbc5cv/yy/Pdu3a0SN7ulvRq1dPt2QxXwTyVjs+S/licZttt9Xz1uGHH5ZaJOb17uLfXkzjrVzMd+7cxb3xxuvshrZE0ZA5vign+1Rj+epvArpZs2ZpfbB8YezYsUlMSzQUv++mfb2vVvSk5qknn9Awn/X4o3dwtAShBjFdEbOV83haQzfm1FNjgqjDbLLJJomaqNu9eHz++edpLQ6v15EJDq/JiVEjtqz4kOeKpV3IRs7rrIj6r0zxhwzdRfPNedcJTqhEzHrEUD+FxSR6UZ4NWqDdqydCoCW8GDViVtvjqYmK82zQAu1eTQiBlvBi1IhZbY+nJirOs0ELtHs1IQRawotRI2a1PZ6aqDjPBi3Q7tWEEGgJL0aNmNX2eGqi4jwbtEC7VxNCoCW8GDViVtvjqYmK82zQAu1eTQiBlvBi1IhZbY+nJirOs0ELtHs1IQRawotRI2a1PZ6aqDjPBi3Q7tWEEGgJL0aNmNX2eGqiYrA7duQ1KXJXHpMchjzxgY4a5TgxasRYd/478+luSCs/dr3w3PPR3GB536AF2r1z+++/v46DZ5sJU4waMRPC/eY3v9E7Hbym8c0331Qx4oHB9FJaurEWXcgjD3uN2hviAFOrGDViOYN8k6k49RTVhG/3akJIvaPvBWku5Fxc56ZPvy/XMsYmHyiImP2nP/0p+KpzI3bbzUts5KJpyom1jpiJLGhqomLL9hMczKoSV0ZLULM3Mp++4GDHHXbUSnGCdt/9WzG7Gr6IsPnVtCAJE5yhuwxN7ExkSXaN+MWWIMVEtxibOSuq/sVYzTf+8OHDNd8ywRlKxTfJKqDC8Hsj8wmOCcwlmBQT3Zw4kNHcKBdQYfi9kVXxKRkxgbkEsyzHKiGjuVEuoMLweyOr8k/JiAnMZZdlOVYJGc2NcgEVht8bWXPN/9y5c3R84RM7xnaGvCxhzpw5momm1P+qP/+ZfNW5Db6+QbCnZEQH6lMQluVYhuRJSeuwJrFdu/Z+8qRiYydo3PNdnm7du2mdvkOLdP1mbJRheD/5yU/Uhte2vPLKK2IWdD7v8feggw/y5cP6JnoDzdEbViGFsf5pTolfkn96jd/16NHd+2tBa5B4TVKtLZqbZBXQpsVH/s0dnFx4EwDKUSM0RU6H34jCDJXhRhvKgrKkl3mbnGFwvCet0OYDYOON6c5PQcUyyuOjnKpZRIJfFcQq5bGCimWs/PELE5yh/BaV2Wx1PdsyVv76m5qWo7a6Vf0pAzYhVfv7bNiUaC8KuWFa5Yp8acafu++6S0/ml112qeBhYTCfG8aPH68ZK0VMykQuDNxx+RGv7SjosGbj8z9+/HlaxiOPOjItRsF3ZGANoz/XUZ0umHCBsa0dnxcd+wke1Z/h6adjzY4xBxrDBY5lfDrHXy9af8Plwl23IUPoRoNuTY9/+mmnB3+ZO5We7vjNu7G+NECKFFQso/H1NxMccZC6CTEtM5ZShF4mCh38a+HSeJwofu2Ovq2SWBRchRDcMe+5716fkE6rr57YFDuy8WLiM2okCQU+oIZVRCRWrrgiUDYMjwrNeyNJKPAB4SlCkVi54opA2zA8KjTvjSShwAccPnyELgTjthoa1uBAzpEUV4S5vBmGR4XmvZEkFPiA7CXdRGLliisCC8PwqNC8N5KEAh8QniIUiZUrrgi0DcOjQvPeSBIKfEB4ilAkVq64ItA2DI8KzXsjSSjwAeEpQpFYueKKQNswPCo0740kocAHhKcIRWLliisCbcPwqNC8N5KEAh8QniIUiZUrrgi0DcOjQvPeSBIKfEB4ilAkVq64ItA2DI8KzXsjSSjwAeEpQpFYueKKQNswPCo07yGZeNFEf7HLbyd99NEit2rH1fRkx+NN//7bwVmA0QcE8AWnS+lSv0vnzt7PVHpRwm9eKdqqTRQmmJVvyusQwyO0fz/8r0SPCdVVxKu4ww491JcBF/O8jhT6qWqkGHv11VdNDurc5ltsLg7V2sQknlorAnXD8KjQvDeShAIfEJ4AZ8+aqWsyMXEbe9o4EReMDMOjQvPeSNzDtCaX25r9rdtzPb9uycoR2waxcsUVgYVheFRo3huJp+QRVYmdZ+HekTVMPcDSe950E+4wcQbInYc7+Pz580NkGAeYAle/tF4XHC9YsIBsoG8KHlkxNmN5fikNZoApKPEBfSOKrJU6Pu7g4Hakn63n61blX9tYU6OIigTJ80tpMANMgelkwXeVf00yMlc4zqGhCsgdBJaGUpp4cAu+q/xrEmvmCBqqIIz/OeZ/6FxQR8sUdveMfff5njm5y0Xw7FmzvUxNFQlOc/n/5z/lhMmLghcuXBiUoJuSxbZkOQLUu8cee0xOvnQRzhfmS+nco2K4ysX3bFLjb+/IeU7q8e9//7vEFk4CJLvF9N0ZeWtY7Fq2aOkW0CvqKFVEYKOSKIqsNECeX0qDGaABxfU3mXvg/vs1BixjQVQkiCoEPtH0gcfwLTyZE9xHNzASZRPf8ws+IkMxRYIrgDw/0PEOjmlM2DCEHaCVAYdsjz12Dw1fp4+quCP02bCP898rgCIM1TsHEuGNN9zorrrqqoJGwTRo3HHHHe77R3/f7brrrm6DDb7mOnVanSZV69IdiSHuoosucnPnzvWa3r7gJDLe++9//cKoYbt+03Xp0iWJP3PWTMevv/OMuyvJunfv4XbccUd3yR8uoU672NRC/L3xxhvufLoFy6v9119/fbfmV9Z0A7bf3h0/+ng3iz64F7cYH/WH7M233nITJkxwW2y5pTucvh8EzRfpuw8n0MeytqUV/N27dXed6Yqm72Z93ZgxY9xbb8WFbvAD6O3hhJiY4OBA5Q9nlW0wAWSdjz9e7P5Mz8JH02v+/P2ctdZey33lK1+hj0UNdWeffZZ7/HFaNZ/b8vFFbLyugP4Xe2suOJFVfCTB5qbKv2aj6n+aCoughwBaGfAoi9gONN7x2MLfwuHtBvpUCMYaQB4rdGtE/seNG+fPK/ytFrvFqBGzcsa9xIj5ERnKMXDgQD3/lNrBnuCHH3xA34aR79rwq+rsYza9iSWbCRA4AIjP4zXiMrwfk4hG1B++8jBGjVipTkEcGQcfFNbfUJm4XO3at6dx/mM970TNvGc76ha1+AOCeCNrzKljcsZG/1Oqf5zg2NAmrmfnadVNBfx+v208VIx5/D2cyZMniyWZmSeV6k2R1K3NoKrQXwzQW1o0k6YZODpaD5p48IeatAwko//XyH2Hh1yE+HPnzHW///3v/VXGKu1WCXZ19GithY+zcOEid/LJJ7tV2q4iEzbyp75D5x75rZG0Ql5eLWR4Bh3Qq6wSfCX6YtujRw/39FNPl9b//fffd/QPtm7PPfZ0bdq20Vj0/yh+Ff6YsWMcz/qlDHJw2fq3p4VyY2kQWOZG9R82Ypjmjf0NsWtwGsj/9Pum0xXMRlSGYny0A/s77rjj3OIli8uLEvJfLiRuA/FTG1FcTBOue/76V3fhhAvdz+gTA8ccc4w7+uij3Q+P/aG78847UxOmVnB8GyBfdCtTvIpf2v9tfhRnJCSVv7z6V2pnnvj//Oe/oHY+2h1Nv2N/eKy7K7Rzlf8kc+XEp9z/eGGqHwNp/Js+fbovw8JFC/1X63X8JNkWm29Rs3yJIDTqoMGD/NjHa2dkK7Z2kZN4UrM9v7Onjn8nnHBCqpR3Yugnn3yyMP4uXBDvJhnV1Geg+M1inwOqP4+XV1xxRVEv7yRPq0VRUOSockRIKX/+7UmvyEvbyLjuX/SBRU2nRUGew6+Zo835S8h+K4mPUJA3SKswH02HCtVIJzg+sMpIu+jASBNvrLl06RK3Cd++Myd2PKdEo353r70cTyx4K3hvZPyrr75avw7Jfg855FD39DP8GWzxeNfdd/m7MCzj+K1atnK33CLf4/EatGMfaTnDCZv0eYX7M+Rv8778Ln/kow7w62nSP/OMM2kF/jtu+wEDfLzUr5kUhbz0XK9X4XnkUUce5SdS8Blj1PlPadNf0euBEWXwHcvI9f31mWf4/GqCUWl0a6L9HRzTTkN5QRnxvapYE5FQ7gc/+IGrayGx6D9W3KmnnOrvevHfcvCdJi1X8Dtwp4GO/sQzOGVf6eKw1Ls0X8LLxUexAN9840135JFH0m3Q+Hzf9zdTr5H8iqJ3uuLj22RJuZPSh7hSLyFWbP2/LPH5bRdpZ/qURGjbZFyhY1ReRa3yj2PDQ6TDQ959Nv3vwb//zY8Frenjdov4UVKIv9/+eEwVxitqyyeeMHd7Sc+rohLm+OdHUpg08SQjqZ+vGXMS60iG+MxgtJ6uR/2dlNCX6F/J2djrJx5MfFFwjv68M45zNNa2pDeEgqk4gGJkhnL4yOHbObH+PFnXjVSWFV91rX/CxS6xBjOJ7zWCGrRnzZqlkz2cf/xHC0vq39T499xzj5y3KFcdVqW7QvTEA5VEfPVJjIS3AuLLBCfxKuFSlqEMqgUzyCOPPOJWp0XCkqj0xIvJAr9txY9wlixeUhbM89IwkXrxhRd9p8JA161bNzoPRzmKQn/ySWWI8fvTIx27vUKvrU24YIL77W9/S4+d1tKBEw3Mt+gY7927tzvjrDP856qfoy9wsg13asRnHX7VcCP6BDkPuvzRwuOPP97dQh84nDlzlj8g6F+6ZeJjynP7lCmxNan4J5x4ghsxYgQ9/pJX61AOD3HCJrjlFlu60aNH+7sT+WfBdtC/9tprbXUL+IjkNfG69A4OaacZrXd/+MMftM4HHnigW7CQ1kiZjW9n7r/fftqZpfx1jv+bpOaGIIBGMWUZilD+yNbFv7vYrbHGGhqP79QNoDwfQX8FwrefL73kEnfllVfqq5jGdUThFjBKCvVXUYmuypqKwBegsU9ZhjKoUV8+FL4AjZeUZSiDGvXlQ+EL0Hhhlm/niy92ndbsJO1M/b9N6zb0BdvYzpc0pp2N3wRFXEAjTFmGMqhRXz4UvgCNl5RlKIMa9eVD4QvQeElZhjKoUU9Q+pNF317bbts/4d966216vGKs8ndPSnymLHoBhU+U1P5rr7V24nN5CDmh4+Iwc6+8PKfgJh8fClMm01d6aZzH+M/jTlO2AQO28/aov/+QXhrMu0tZhjJoU+KW6gZfl//xCq0PzjsP0BtfcTNBDRrltbGFtJaW1x1JfeucTk7ZBL4AjZuUZSiDGvWaaHoHR9VKvJSwvLrnGyGh/OdnHdrL1yGRsALkkzVd9dPftWvUiBh/YAbW+eefH5IlHfSrvdcnDaMf0Hfmv60HE2K/+NJL8GYt/GMldDjAttRx+fGUX+zMVibEWFrvAp88iYIND7yvv178QuUCuvrgR3TRJnPfHbWXlsUi899+27Wlx1PwCZu1unR1U6bcblU9Pum6611r+jM36AFuQo+RMPFD0QHZcNiI/HdwhhjfVtO5GTNmuA70+Ivryp/ypn/NjbpeVfRfoz+d48dkXAaUn/4p3vGAwpv1anEvTHYl0sB69tln3dZbbWXqW+eGD/um449F+k1NFdG4kZOWJQmdOokiaxy5wZERKqpIFT/kK2Zk2fmfQe28lWln7k/Dhg2P7Yw28E6NZ0UVafb5f4PuUF1CFxB8sj+K7kj++ten+wskHXu4rrE6qLlAzzdCRRXxpvwo5Bb6Q0lsUQqOhSXSEpa38HwjJJQXFnN74eIG0o/oIojX6vkxisZ/hvwSivyFTMPxTznpZNKv8x/ms5qSF0QgiaKKKAucu+m/lTBB6dSpU+JOCGgaUWDxhSPGNi7/Km3b2aDLjM9rN239+WK4uNWOX9D1qkZfUUUK9WcfUercgbT+BnVi2KFDe7eY2irZrIEVeL4RKqoI/Qkpbnhk9CTlFm8dpdYZ8BJpCSs6MkJFBaEJDt22U2Za8Xw4o6YJsjzoM3zqqadcvy37SWNS0myjejzwWtAjj2Noxb1/lEF2Zf7AY/i97+E2p/jkOy21ttU7xsRyzMmT4wEebeppjc5N2sDyOe3MXUZ/TonNxmceL1y2deADr1evXu5tmpwUN7E+6qij9KBi2w1p4bVsxfxvuqm8jcadjZ/Ttm7T1r3w4gtJbmyZJk263j9WS8uUuWlTp1EIaHK0iA8fPiypAy/KTjU86U227PcNLTvf8bJ60aPo2/bBmpxf/vKX0VnAIijWP8oEQ4yXZs4s3OE69zw8j89bgYY10xaP8k+j/8N7GrOKH/MCrNj+M0M7o//z8XUerbuw2QMOCG9FaDUsDs1ifEgAYQXIfOCA0C1Cq2Fx0TzppF/RHWBzQeM/5y9jG7/QcMavz6C7pYu8srUGDliMC069n0Dwibz/duldbNFYsfXnly7kC8b0iZA7+RMhtoT1fm1cYZyaFtfJWe1YA+d23EkmBvy2D2/QA/TM0p3VEFzu7kuOe/fu1aTzn7+TTeMy6tC+Q4fSqJGZxh80aJDaso8jjzyiSfHhF14BwS9Cq2FxaNbTn4Wul5z/eGGw3WAFyDLggFY/xev9UxCfL5rUJo/kvOKK7X9pbBf/bFOL7Etsix1wZSmS91WgeVHgL37xC9eqNX9aOz4uwmyRK82vKTO9/vpf9XcKJHM2Rhr/TFpf4ge+cAWwF63pqbV17hJWrHvdOv92lnomBPid9O+v6LCA8dlwGh9Wa64ZH49wefgDVA1t55x9rsZg/U6rd9L4YhfjbLut/IeLv8qgso/YbQTCkipKnUbbjdaaSNljnvfeZ+9UyVgPp6thm3/9qwbvPsZ4+pmn/OSGy8xtOGPGswWflnHhhRO1nrhKGrD9AFVRz4Qo7qWB8sBKBF9EC/n69NlQykxl4X5zKH2PoqmbeiZE8UbEj8qpVRW/aRnQ7NXIPy/Y7NPn69KH+Ljldj6M2tkaNi1kom3dKO41AuWBlVg+K1pZ4rpRBKz58fyhhx2m4x/GnQSG+m+2+Wbu2aefCf7hoVHhvNKTT/HC2Dr/5qdaE6K41wqUB1Zi+axoZd4w2T34oKy/4Ve5F9H3b/LbdHprSMYSmSTwcXyAHzttHBuj3j8Ob0uTQK4D/3fUJ9nY80m/+pX0LxpH+vXbMrirHd8rBPF5552bnH94uUVTtkGDByf15xciZGtc/GXlf1llCVG8G8b57rptD+5/fAcxbrZczFUPUWUZ2De2ogvkcP7/X/qas9/ITerJxrESy2dLKxNXDe1rPKIqcUN+reviVa+RAvWw3j1Dt5tHjhypnYoHrZjUeELmNRX33XefLy9caOGJwTyeNJ1yyilu6623dfzpa/4kuOgaC0L5o1BrrpE+Fop3ZYwu+eS/t8fAwuXiOw+P28VvXAgysVZ9+vCbRHKQMjzggP1YSzYoekgzVOJybNUP9S98yyGY96dn16pLvvcaNaoQP5//KVPi821vS1eCm2/GH5KS+MF1APUursGR/PPr3nZDFfiODfvz7UU+u3Tt4hdwd+7c1UN+pb4z/bp27awLuxEfdeBblOkG7ynXUnkNf4uar2550Kfy9OzZ2y1a9JE3EV1jAdTD8vrbWIzzonJ+ZLoGXekuoitmuFA9YlhePv+JFIoeNi6+xgkIXCifGJb3RY1/Cj0Wxp0/bme+M7poEZ0ov2D130/vRMvxx2Mff1biIFrfxn95gzWAOIZWbd/B3WwfMZnOIGiBETpMvbvEr0fMHL+oIJvR1Q6WIgUNYlherf7HX6zlMg+jNX5ikPZ/fmz+1fV7J+M/T4be5ZcRzGZj8ZuQPP589WtfU41a8b0CjD1M47P82B/9UOPzHZWyDS5URgzmTbhwQhibpd1WpW/oiK6xAOphGp9fSbfnvwMOOFBDWAQulEcMy/sk9bee/vjHy0N9woST8vy3v/09ieXL8AniD+VXxckv/w455BByZ2uiNUyQgsZyxtcJTtoMXIZCiFwBGpJDBiimU2+/w23kXzGWyqLSFvICZX4cs7zx582b58aNG+t6rtdTk8r++QC57JJLpSBaLEHsBMeXhU6iTzz+eFLfPLElzfz56gNlT+/gIACgc9f95S9yUBmbV1+Vt8nYt83/tv3lX2plUpG5UTzByW1Wn0X8HJufZ6M8PGPuSF8PTTYUh2D+Ozg749/EYRDaf5999zE+Y319Tk1dYlzoyAAA/lu0zkD7NcqhjLT+vgim/71O3xXitTzwxfAMvCmG8iYQAQCDEGSA/N0g/o4S3wmKnwnI3Guvz1vu/ieRcoFQtgIbjIbrD3ML8+1vZSWJFjHCATYy/6lvuFInJWLIAIMKSMBcfG3n0K+4/595lnxHJR9kZa7/Q39/SPsyL1LlR7gf0gff7PYWfQfr5JNOojdPOqguv9wwceJEr9aU+h8U1lj87IQTJUSN/Nv4yzv+8jpEPj7Hjz+f3GmgJC5/D8Uey4z/7ve/S8Lb+Jwf1uEXCLA1pf6wQXEOP+xwjc9/D8RbwZ8Zf9SekCuuiBMCHv/bly6RQL0Bgwcit99Bvg+E+uMOTmPjoywFfQg8RFzAGD8RU625b6AsDHnC5j/vUaP+CNOU+Pvss48/9/Hx7J8qaLEUaXT+mxr//wEAAP//appNPAAAMt9JREFU7V0HvBfF8d8nRYqCodnBggpGNFFpmggIqGgENIpdsGFMM1ETzd8udqPGmMQuGBVRYvtbwYjYRcGCGjXCs1FVFKRJe/ufsjM7e3e/x3tP/Cvwu897t7Mz35nZdnt7e3v7c77K5w7LqqqKsUjlVPJmMmCJLlmyxJ922mm+oqLCO+f0v8LF+A932MEvXbqUnNTU/1Pjx/uDDz7YN2jQwLsK59dfb33wIfbZ9s0335wknNIEp7Fjx3rrH9M1efLkav3vvPPOxr7zhx9xRGI7WyCj7r5b8yr5/mTaNJ/FoZEuXbsyNqR/EOQLDylDimROKNtrr70SPcz/nDlzCJnV7ddv3yQ9fXr3UYsWu+GGG0LZQDmCrS232tp/8skn/pOP4R/CadMi/THyRRb4JCf+NL9s+XK1LwT5sc6CwLKw/v/x97+TfxfaCKbn17/+tT///PP8eefx/7khxPiwC4f5yW9w/SW+QuQXv/iFb9Kkiea/cePGSf3PmDlT1HxN259NMylnGJlohBQILGtt8v93rGfTJ2Cb+9WvfuXP1zo+X+sb6/lCrGe5TrXGAmELEViZ6Hda/v369aN81oe+6qUXX8qmPEnrm2++6bfdZpuk/R8z5Bi/ePHiRC+Xv8B48cUX/Trr1CN///znbXmdnGJaVrVpf7NmzQJf61Ba//P2f/K+AufDDz/M9f9du3RVvE0S+t99t93I5h13jFRMlrA6JMswbPSwww7Tdjb46MFZU0n5Z/N///33c38I7RT7V7zf4GHtFzFE3q1bN/WNbf30P55OcHsSLPKy/i3O0laH+BlGJqqQtpu3pfTI/W/vvfdK8rIq/J900i81zwMHDtRkU5oKEmZZ39S/U2+aZctJXFkB01asUmbquQgDjXbsE2N9s2bNNOPYmUnnhoV9++23g0WrbGl2tmL5Cj/yzpF+p5120krq0LGD/9vf/u7nffWVb9WqJfPRNvzffPMtId2prbFPPBE6EE4D+ueO0+Is7T0OcCS9GB6hAxzG6Tmo3U0DnAq9ODA903CAkxwM7tY1vQgOHoQDnGDI4jOs4489PkkTpuvDDz60GkxD+ffblztZyUPvPr1zPr788gu2F+qmTZs2qa2M/2CcAhbBuQgD/ouPLJ/jvfbspfnCuqEBF+RN0i6hXKQY//lBB4EL0M+aBO71113njzvuOH/GGWf4Rx95xC+Cm0Wr1q3U3qyZs0LyrLKlC8SBJQ4ZDecCNei1FJ0SWb6NW3rN9N+rV0+qA1uPVLeh/SGdrf+DqJ5tKXI56bmg2L7L8v/P229zO4M8XXzxxTbhQGcTy/G58+b6/ff/mZYNtv9dd93Vf/ThRxl9jGrO/YKF832H7TrQjbjNhm38woWLGP8ttb9boH/FOurQoUNMRTZLlMQq36dPHy4HwEsdT5z4CqdPz1V+wYIFvkFDeGgF3PTp01VCRJHt6BkgACjADBo0SPv7Y4891tjMgm2c6afGPZXrf4wB9mnP1gTwu3TurPnFPF100UVGPQNOEp+VqROjjyTj9FygJu2/srIy1kG4xi655BJjzypbOkAKWEX+f/vb34TyrvBHHH44QAoVNe0xARZn6Zr7pwGOHSVxAo0xIjmOZyNJipJdWmlMJgELMvXGG294vPCwovmmFWZxoLB32303YzLv/+WXX/a7dN5VG9sPfvADP/zWMIAJrlu3wptWnBnKzuBICseMGZPzP/nNMANArvP+aYAD6ZSb7RFHHAnmSuf/7lGjtGFLXqfB7AYe2fLv2q2LNgjEHjwIb9a5msmV/3nnnqM+pEy/+mp+UEzTpjM4oWH36Y0DHDwQx9jp02dw/gjD5YgDRzkYZe1aWlDBXEH9CyKbf/FPcjC58SYbJfU4YOAAP2zYMH8B/F847AKiMS70n//8Zz916lQxX5j/KAQxpM22lZmzZkQxZYnzhWemWBy5ArdS4QWlb5B/8bqm+994401i+4U2N2DAQD/sgmEwIwd1DCHWN/5THMIroJ4rp07JFLSJCkkFV6JusHqSusmUMqmxbkaSu/6knsSthqTINm6/43a6pjp06OhXrFhBkJr4xySefU56fbeEQfmI4bfqbLf1/+yzz/pt2rfX6+aKyy/X5GSJmvhHnZXlv38YhJ119lmpC5N/EYwaFWa0Q/+D/RwPNlIvYx57nPrCrbfeeqX+bf7FD4UZ/8cec4yWCw6Qa5P/iZMm6eAIH1Ix3TgI4wMdFRzG/3Ydtgv3DO5Pr/3btbXybz0wnefkUmD8W9mtt96qeZF70osvvgAQY5NIjpMZYyByhckciUmIs2R4P8J/flgXCYe1KX/roSb+eQaHkAaOJEfTlJSIPT3+ab/zLrv4G268MaS4en1r/rnnnvcNGzTUgpYBSdMmTUt48/7GG26AqUHRqfA9e/T0s2bPjkkODlq25hkcmR2SAY71j07Gjhmb8z/5jTdL+kfBzjvvEnRwRqGCXlFpkWUdAJ5ncNJZB53BIUXWxjNO10qDoEYRXlGh31IH6uFrGtbji6dho4aFcMTu02+f5ELr3WdPwlIq8AT/8+fPZ3t0IbPNRx99tKRN0kVp0C8EFolJkbWV5KhftmyZX6feOlTGUiZPj38qZxrhQaVO/ltJW4G6nDkDXlGpsZyrQsY39S8OyW1irNBdjpmoJJEcNF896jSkYiX6eYuZIl+Jfk4MjGXLl/LrDfNAMh5eO9f0SGwmkbyFnBgZocKVJCKvW4qT2EwiqcaZZ55J19TQE4dGgTpdefnfdttt0F/WBxtwPdLgoMJv0W4L/4uTTvJ/vvJKf/rpp/vee/bx61TwqyK8ZjbdbFNzE87UFaaiFv5jolPqy7lzfcN116W8vf7aG1KcKSjE0N3XsFRhI3j9Lf095gVfFc/54sskgZgflOFrueqOpMiTSF7rl/DaE8sFb+p9++5Vq/xXVlbGfjOU/wx4EExcJpHUv31rgf7vhDcQq6L8E5dJJPWPMREPPvropPzXW289v3TZ8gjIq5bkiE0CJBHvBx4wkMoby3zw4MHqX40hngshFgXxFLFSInFpIi5vx3IMMrCtVJL18ssTKANtWuM06MJ8YkCpKmSAhWKFufie3cmaHGo0PBD47LNPAZ46fvChh0IDY0zbtu38559/lpoNKcAnHLkp4kVyi67BSf3jGpys//iKKvUvmoWvqEQY/GsA/FF3j4rpxjzC/3RYq5JXqfJdZQ0ONAhMP64tEmAWz3E+H39c+orqx7vsrOWSLX98RcWjdvbRG6aMFWwS3qZN61iG2EDh6cce1r+k0cqRnvflXP+Z1BEJJRdpqlhPZBirorrVOsTygHYiM1+MiOdS/pGfehIfkduqdcgn1MtMXYODuIBNA3RKB7NLCA0oekJmwGdSxXCRCS61baWCUHtZIRsk8ffd/+ewVozqGa+N0O4/+eRjyMGalX+cMaC+iGab01rh6rKViHQ+/88/95xv27atlpOUVy6EsmwPsziVU6ZmWpr4qJt/aVYYsqUqP3z4cErPNrBeKHcAKPXEWufATI+mOfT/uK4uHlW+Sxd+pXPrLbcSmzUtAunAzQoFBnzr/4w/8aAJ+7/OXboIKoTWCNIhHoLlMJW2QfPmMd1g4623wsOwVbVWgY/+Fy9axHrYxuEf/U+GNVbpYY0gHeJpoCrMLiEUFIht/sVmu7abx3xA+e+zzz7RH+mi3dR2iInlIE0xKgxEr569NL94r1ebmVQx3HpAOrVtpYjneIphO3yGGRwDyWoHZAm22vniiy/0Znl5wVRooo+RDOMJXAMTOjW56eLCuAUwg4CHwBcvXuRby40o4G+8KcwaETI9tYJXVGIP7dMMToF/GuBk/E+eHBue+LfWdYATOuQjdQ2ORTGN+jKDw+nh2RCewWHrdA6OeIAT1ppAwzuoBjM46GkveBqRcsTw97//PSUgmCWaChMYstBR8HviK6oEyPBu3buTTUw3LqprDhd34SCW4bnzClhcvNvuu5MeCdFH4ocjdE74bGoFdCgNGjakepRF47hQvTZHYhYjOYb3Lel1Jnc6cYDDXhJ4bRwHbKJfwj9hEmB0VIIdASuhEn2M5BiBlfCj0RLsCFgJlehjJMfwfjm8rsGZ3Hi9VviloZ4T+Ep8WTHO/o266y5/wIEH+qPhaRVnP8h3MLhs+TJ/58g7aSHzPrDw97BDD/MXXHCBx0Ww9qirf7Fh9Q8ceABcTxVwU3wriFlKZwsUZQiL2F9++aUfOvQEmDWBmWy8NkP/JdczhrvArPqndmYbbaKxxCBH6JzwEcxHCbaIKdw7fODwpz/9KeFjJNHHSGDgmpr69XkBtKS7BSw1+Cq8Bp8PYb36OFvl/JT338/ZrSkj6/+6f1xPNtFuB3hlhAdhEmC0nmX37dtX9XGgUmpWWyyIPr42t/0/fuiwHNogHrXxL3ZrGop/wmME/isrK2MeQtu59JJLC00m+oWI6pk/+vGP1dfll14WMis6bJ3OJRyVYIuBakMY4ISjOiv4AhgPCErBWrTg10E4qJi/gAcmQYVUUbOU7osvvKAFIA29U6dOQQ/9suYTY+NASKY2J02cFHEZqkWLFsEuDyhuuuXmDIKjT+AMTqhkCeXrDEIU5J9eURkdXoOTNy95pjU4YTAkPqZ9YhYZCxBM6FdUYB8viINlISVgDCxxthwWXG+yiVnDAHr4BUXEp+VvBzjoo/eesgYnMUuLwiS9Ep566qkpqJrYmWfhU1qF/w189RTTUqBQjbA9vH8X3xjWZoAVzab5z6agVcs422e/oiJcQf1n9UvFa+q/2sJZS/zjbENhPdcx//ilXQV81dMTniAbhq8rDz30UKoqXP+3xRZb0Nc83eHLlsMPO9zj7AP6b77BBv7xxx+PVVpH/2ggW/933nmnP/LII3X9jTqJQGUpUY1/7EMugsXKh0H6O8MC1j322MMPOWaIf+CBB+DmuTznX21miTr6RzMffvSRfqn16quvJpaj2eLr75BDDskNzjA/eDwCHwBg37TxRhuxTTAW7TFrZeeIj/4fe+wxbWctW7ZU2yVtZcr//PPPB32+p2B7wa//Sh3W//hnnla/qId9sB4RqCwlMv6VXwMimo35RzVafwNpwHTwoMv5CRMmFFv8hv633HIrzjfc/0aPHl3CRzGbuN/Af8ErquCIjMbiybrPSuxrlZ8f+HNftQIQWZAaCYIAwa+bsKBxNCwFfsLxxwM6NXDuueeqnPCg8wIMjnIHqC2YvwAqDt5DUyXybMhNN90UoKn/sTJwMv4nQweY9W/9/LjkV1RBDV2Y5N9jPxMPfvBVi4Go+W5Fr6hUykRWDz9flDLB8AB4Uiw0TurwFVX4VFXKp7cuMg6OQv3fAOudECMXAdL169Xzj8PC7JJHyPt1f7+O1lU0bbqenw2fkMYjpB6CbD4UY9ofTutb/2+8/nppPTQQ/JcG5f3jwFzaH83gGP+aJkMUpRtnDEbfM9pfftnl/t9P/Nt7XkNqtITM+xeJhuB/xYrlHuv1iiuugM+JYbBKaWJEkf+oCxQCCkBVMFNy//33kU18sMAZssKjhvlne5zGF18IaRTfJUxrwkBuIQcdDK9vTFt7/fXXCpOGTKuXA4Hw1Umvgq0Kj30GHif/9rd6fdx0840eP0rYaced/CRzQ8YHs43gZoptDT9Nrs7LyvyXKn9KjKQejJS0U8PyZ3uZMxqV/4yIo8ErBIHKo2rhX/rljrBwmg7xXdq44l6Da7kC1wtBmcv1h6+AsL847bRTiY9fPWWPkqYRuBL/7773jrYF9IvbW+SOavL/EX7mjp/DY5rh3376THZK+D/77LNZJ/T/d95xR8nyXwbbpIwefY/HNyL//jf0JZSemMpvkn8sIJzRlPTjdbL++uvDOjieTeI8SCaiT0vV1P9CWIBdr1597b8nTpwIZoI2BCXtVFP+mI6SeiJEAPzrKyrkF2mlhkJMmBKCKn4mLQWGrxJwMZ2IJSQfOT9V/mc/408gRR/D0f+6l+BW96yzzoSCiiNnxP3ud79Ts5Go8ldffTWlx94Yr776LwyxRiGV+LRmfSMtr6gSqOQImPJpuugdcAAMKPRgLdHFcOTIkeBD0g4hvHriC0tQAAqkvqIKF0KPHj2C5QAQFQlBigMUSUuDBvX8e++9J+Y0DEbIT9/Mnjm9evVS/4oDAhcDbr55fFcr5d8QXhvhe3F70xW9+fPn+T/84Q9a/mdkp61NuhOnCZ+tISt9hVkBX8sNj0KmMmc2JOYkVFDC4AgNcKDesQztDE4ClZIUpoTBMH1+CvryKu2kX/6SJBlYkuUkkgEeeCC+zuA0YXgCvJJIDGbwIRkQsEDEEqJ8ILRTaodhzcPQE4NNFFogxuFIWSEmTAix3ds0Dh06VLUMjGzpSQTEiJHsDO2IEcNX6l9tJkSVPwbWiuE+M3M+/5xscHuM11/H7bf3n32Ga/eifyT32ntvyg92ynPnfmmlESsqEia+McICEUuosIRhIoYUbMoKMWFKKGANWSBiCTPiEDVSQwrWspYtW8psYUK4CNaVyLKBuDyBAQYm5lJ9ilV5Wpdk2jm2p8GDh8Cn8PAhB9DXXntt0A8WSxoWN9X7X7Z0uW8KC2qp3UIfi7NdISliQENxlQCAae9Z68Li6nnz5qlOqfrfaacfhWulwv8A3i7wTLTxYMiDB8HMVuj/MZ3clwSA4CQ0nm06RSyhwoDRtl07zT/ap9mkHFByIpoBIDgJRawhC/D87DPPhDzjnkENOc+JnokYUkylrBATpoQC1pAFeI4zOAKWUMF5IqpHmYziqdFAgeFo/NLLLqVp0mwx2fgtcLOyOkjjRkxFR24gAj4a1m/ob4eRMB44CYefR1Injo3DNBC0O2DAAPoqZ8qU9/31118fdDztuUNpMPhXXn6F5EUnzP/mm29G9uWGvxs98TE6X4RV/jrYe0XzieUD/08/PT52oKIEocyG8eCsAr6IqOBRfEgMQ0XB+7/+9a+JbfyiIj0iVlIYB2jc6e/YaUcRpaoQu+4f+bRLeeFTG266NmLECP+P6/7hf/Ob39AUP5U9lCeWy8KF8hmlmI7pUUoICQWKIfBiep3fCl5ZLVnytUUkNJpYUbXCL1m6JPCzRmNcKHpFFeo/uwYnMQ4R1hFNlqJO/bBeQMoGy4DXWqRYsYCaKhEihKgn9S+DdNwcc/annxb651TwWUxFHnPQZrYNOpjl/BRsakLyytFMoBhS5d96G9MogwZu05LGVClrNMaVAgKvX5xVkTTiq8klS8JN1RhknXCGmeLsmqyvQWe99dfz/Qf01xTbdRMbb7yR7kFl/SO4ezdec4ZpeO/dd43XSFr/kRsptamsLCfGlRJCQtXNEwwpDcxLspwYV0oICTNuz4JXzfhQg4tE8YtVaTCnnXIa1Rd+gYNrMfHIm8hyYhwpbJf2qy+pf2n/b7yOs+nxYO1oI0qYykuyHLsPT4XHmRVNdBaaNQ5xhDz//HPJ151yP0F43kSVn4Sfl4d+H0PsLxOsKEFIfYnOesR9v7gvEfuiQGaSU16ScnBRdEwLX7+6/iaFJnYlwpDSQCvBLTvEF25yyEdEKCWEhOKsIGRIaaCVxDU4akjEGBrakAIVFsZvv/2fmhHJEIa4luYZGMXJITrz5s6DRbC/45uCGVhsu037sMgMkYKGEP5wxCuflEunz0+jjjb1w2k28Y3rUfCClLiEOHJeFxbm/XD7H6r9o44+SnFi9zq4WWf9Ux4gHe++966vp1OU0EAg/bhY7gNanChpJrSe8F2zpEFG5rgTa/7If0WFeg3qN6BNoebNjfvQ4OzKFZdfkQzkdtutuy7Sy9vmHGEDrweLuCU9mH58Cvn4I/PVCpU95+XrJYuTjh/xUk5S/mrLXMQ77rijx8WQ9tDSIUJjBiI8DCP93/f+S68VyA/4xzU9S5eZKdWAxdc6uM4B13Pgf/YQiwzXGLQfeEUFacd88QAn9W+SoiajtqfBalEZ4ODPHqpDhMYMhHk4+M3aw8ED7iItR6otMQkFFcOnn36a8wjlJ7bJJnzNFw/Rx9DQhhTseLLH7T/aKzHlH5TETLb8xeb7/30v1jPUBa6jwU/IbVIQi6/G7qB63sa3hz7DAj7++GNaW4OvC/HAV4d4A5Y03n/ffQGuqSEcrlnZoDlvPorXKH7UwAfgBCohCAxpYik3GNBApURoTOXRKspEDqEhBSwsjktMQkGloUqJ0JgBCQ9Dpj/4oDLpL3DwiBu29YRZX7n+Tz31lGBD9I1JQ6qUCI3542FJAtZP7Fe4jeJHDSuqlktSYqipE+NiS0Lhp6FIzz/vfG0P++63rwEJAkNDG1LAZ9ErJ27/663X1OOu01FHUJ76Y1nfhXnsB1t0sGkxGrEokOtU2quE1JcYFUMavylXLGPbngv33PHQr3Tv3k3zTrahreOvC3w6Gx905L062hFbEBpSbAqL4xKTkLkyq41+/vjHP6oZJlJs3o7IITRkbfy70o7ETOq2mFvl8f07vnbBBkqN1HaiwNugxQ/8T37yEz8Ipt66dO7im8C6DPk0m2/4FbAnQV8/ZeqU1EWISf7Okc2uMk+OXFHsvy988jxr9ix62kB+mh5okFjYp5/hR9410h915FGwTgQvJubjzRtpHCydDph//etffnb4EuHhhx/2l1xysd9sM5i9ETzYIt8Qbgavcq6+6ir/CODwwI4W17AM6L+/GYQEP6CPXwcNganYhx56EKbLPw85xRkcaYCCjT4wXbgLaJ8+fX3TpvHnBjAN+/fvD3vXxAFQfH1U5T+b85m/A2a6Tj31NN+8GX7mCLahvqh8Qp7x01P8mQN8PZhOuXq/+Ouvk9eQRfm39d+nbx8/Y8aMkKd0gRu2OanP2rQ/vPBxjQSXdwV9QnrPPfdAxzKZXmNdCiv0O8HPfEh9/xbWXfCxcv+tWsXPxGfoTsZaJTG9kQWU5IJ3XG3StGmu/eOrEsQJktRrkH/cg2j99flmK+0LXwWksxViVcIkceb1IftPbXL9t4Z8L11aejZMLBZ5wLZmHyqw/ttAGvXrJ103ULv8j3/6mVDP3D67wKe8d1M9vxnq+VK/ww6d9Lo7+WSpZ0mtp9k7af8TXsK+ia+h9u3hM+YS5f/8888HXAU9mEVrsaYtL3KLSgekdcx/6oNjJTwEaAnpKvKPa8CkDcaQ6wbjjRqtC1teTM8luzb5//zzOZ4+Cgl9Efup8Pvttx/ZLZHDOud/3FPjtf/baKM2ubRnGUX+8Qso+6qq3RZbwM/+xLWJmH8c9OyGA4rQ/jrBTPk0KCu1R4TGyO2CBQvDT8nEMsby4L7Epkz0JLQybn+XXXYZ/GxRU/Uf+22+/tGu3H+JXqcCHtYb0NsOa62EhwApIYX8bwFlIv0xLhqnA+CqQYTGrMuELkYIV8JEha4/msFJxBpRItUqiCHyc3jXjYWH22rfd9/9/qlx4/wpp5zit912W8ggVxRlFAqUCjKESG8ON1YcSNChbpXIecR3svibJ2wPK0o6r23hqQ4WbgXVysoP6KKx/vHTPPxc/H9gXQj6Lvq36UT5v+EzdjwaNW6U4LP+pfHgojk88OaL+ta/+Mv6uA+fKvGAtGcXGQ+EV2s4wpYty1MbFf5HO/+Y1vhIviVkg2wTv6iyPi0t9iRE2bvvvqPqlrjmmmtom/ii8sf877jTjv4x2H00OUpXJcESsUaUSEzhNPgJJ5zg8esHzkOsf/RfD2bScJfmZJO4YlNqF8Uyg4NlMIv2wVmJkmrHi3XMmCco/7h+A/eUQFu4mC9ezUbJkIknjVT5J598kl7x4aJunAl9DqbFiw5RkXqXULECAEbOJuypYsQmrQlXTWWJJ58c57vDruP1II077LCjf/a5Z/X6U+xKTCXiEPniizmZeoZrNVznWK74OnC/fbGen9b0S74lFP+XX8Y3aGwvJ598srA1FP/4iTPaRhwucK3pIfriV0LVF4AyUiIRa0SJFFwQE6T4lVChAlBGSiRijSjhh8L1huViy1/KCa+5a679KxkUvxKql2hKWZYQcdEHDffey2sxLT5Li774lVBxAlAGbEsAs3rxYcmF2RcAKFYJo5Un0dcF8FCI7V/6/1122ZWu/549e1I7lf7/iMMOD+tuUjuJpxDBgRK+lsd23k/6ksFHp4ohJvqSbwlRfOKJJ9L9B9PXpFFjmh3FfLeDe+6WW25J6ytbw0/w4ExZo0aNaKYO2/9xxx1b6KuIWco/PuByO6mg/loefLI2RJ/4GlEiC8/FBSn5lhCBFXiCROiBEe5HIJvhSHgIhyFf0fHrX/3KbbHllg5uxkbs3ZQpUx08fbtp06e7mdNnuAWLFjrYRtzB07bboVMnB9twO6gA0kl8BSsJL/iHjcHcxFdedm+//R+3wQYbgJ0dHOwAbPwyOXv2LPf442McDMAcfI/vunft5ho3bQJ5LD4SXwGS8KrJf3UWUUZ24IQ9aHX+u3fr6iZMeIXNwf37oIMGudH3jHLwWs/BE4F7C/K8+OvFDtYBOXjV5jp27FjsmriceiRr6r8m9T/niy/c+PFPucqplQ5253Qdt+/ofgjpaNmqdSYt345/dPLBB5XulVcmunfeece1aNnCbb3lVg427nIw02HSUDP/qINtCkb8bubMGW6jjTZWG2wh2Klh/eNl1bhJY3foIYe4ESNuI1tkAU4rq/+alL8mbqVESDfgVlf/Uys/cBMnvuzee+ddB18/ua22bg/13NnBbNFKc4+53n///g5mXwn7wP0PuP4DBxRef1tDn1Q5dSrhYDbHwfoxorkEQznWsP5jwlb/8r9z5EgH+3xRmWFuqPeiZ1bn9u23r4Mn85jdHFXz/MONysHstIOHYwc/2+EuvPBCd+yxx3C7DWe8Pkvdf3KuiVHaPzzkuksuvZRQsHbQwVrG1FcwyBaCnRL+P5n2ibvlppvdI48+6mDtlpu/YIGDV3lus003dbBbshsyZIiDL29hOFj7678KdBo3Xtcdfuhhbvjw4ass/0Xlxbnks8gTXon8C9aGF118kTvrzLOIBbPp7i/XXFOn/NfVPznGAU48ZCwEHCWVIJiNyUiJeFYQDQaqWqFBG5ySSqw1/mWRMVQQPU3STsYFJVkufy4UaiFpMzFtCslqhYTFGRwYdOK1xGtwVEUJwtlYdeWPP9iJtvC1WU38k3GbTnWkRK38sz05pzaEmw8NTkklCG5j1eU/tW21UkkaMzgllaiT/xWwCLl5WFeDP/kxN7MmTPzjdhNS/+3ateNtLkA4Y8Z0WsSPG1biYVOzOuSfEp2kmjnFZ5M7JZl4EL402na77ahNU78Eo/Cf/nQP+hKNEIovslyt0ChU+a/hVfj7sKkfbTNCklTXxr5p+b8PH5vgGjTMD85gLFpoPoZQR0rkUlOd/6XwmXc8UhuRn6UMTskqj7/Szn3JpUlNVuc/tazGUnYuZnBKKkFoG6vOP657s0s5XoftAFZ+GOtKKlEr/+KLXlFJBENrztIWwzRLq8dErSya4gXKlmXpaEkollaPEazkK6KJilEFWpalFaAES6vHKDiUa0QTFaMKRFbXbl21I8GGffDB+X0g8jlSE4UEu4oOiYpR1bEsSytACZZWj1FwrfIvWtXbXrX+7SuqmbPgt6jg+Cb+74IddLHuHnzwQWMrWiQqRgmT9VkgVpykrnpMhDMuoomKUQValqUVoARLq8co+Durf/yFahm47ASvT+WgdJvE4+ftWF/4f/Y58FUNHCjGV1q4qzou0EwPVjYmUnEmlkVTvEDZsiydMQdRllaPiVpZNMULlC3L0mLpgw8+8A/Dz+VMeHkCbVZYhBGsDRkX0UTFqEIty9IKUIKl1WMUnCst0oMTbo8BU1NU77j5nbVn6WhJKJZWjxFsvrZIr0DZsoS+665R3Jf8L/clbJWlgomeiqksmuIFypZl6bxVlpbC4IZ+cj3hbytm0RQvULYsS9fWv+B1gFPamCwQNAgllRB7ISzFR7HIJGSVNBbMULD2+c+uwTmIBjimhJRUwhYY0KX4CBOZhKyaxpgnEpYZhJJKWAWgS/ERJjIJWTWNMU8kLDMIJZWwCkCX4iNMZBKyKv9UAz/N8Roc5iOekQavpBICDmEV/DwA7zdTWVmZkzEj1U1jVqVu/q2FlBZPEhalxmqs3v6vvBI+U6UbWIXnReeSbwk5rxvAxn8w90+d8tQp/KHD4sWLYe1AC9+Ldvk2eCWVsAUGdCk+wkQmIaumMeaJhGUGoaQSVgHoUnyEiUxCVk1jzBMJywxCSSWsAtCl+AgTmYSsmsaYJxKWGYSSSlgFoEvxESYyDp+DNWhS713gRpw/vvv2P/CAA6ldVlZWcvIkC5qXbKoVkBVAXGQSZkzmNOqW/z167KHlih+HxEP8Svjt+Bd/MMBJHcVohi8aJkwRUhABkAghEuIyrRXNJEDFGSJCM1Squeb4p1dU4akCR8H2FZUtgjU1/5zHNHc230KniLrXP24/gAvs5IkDt/H/Ju3vXdg/BT/rx68C+YCUhsSW27/UnoRpLUo5aYEJrCBMNYvrH79ykRmce2Ehf1H545dpuGge65+3j0BnVfDFIe+kmyxYN+moiX+GAzKAi/wbk4ozRCK2kbL/tDSS8shGqin/o46K24TEn/5JDFhHSqeI4vbHYEBW418NIqFGmaC+BDasjH1JRCuUWN+O/+gtT5Xyj/2n9KV87wJkAP9/t3+dwdEUhHzE4opULotpDlWcZUucQ3tWFSAExbzoNVIWTXSqouIsW+Ic2rOqACEo5kWvkbJoolMVFWfZEufQnlUFCEF5+k0ZbiD8RAmLIi0w0lEl8hJLzBaY9Sy8qJhyYq4jFbGBSlVUnGVLnEN7VhUgBMW86DVSFk10qqLiLFviHFbBJl3P+9+fciptI4Cd21ZbbaUXJJZ7G/iqYNAhg/xJJ/0SvgT8PXw2H77wUw+BEMMZ/r7waSvawS+W8BCY+Lc8AtBJUMyJuY5UxAYqVVFxli1xDu1ZVYAQFPOi10hZNNGpioqzbIlzaM+qAoSgmBe9RsqiiU5VVCzsFbBXTjPaEsHRvlWfwZee4kcwoiS/Wo37leAO42fBL13j15C4v0sWKzqlBFm8xDm0Z7Wk6RJOzHWkRKahGFYGE1m2xK1n4UXVlBO9RipiA5WqqDjLljiH9qwqQAiKedFrpCya6FRFxVm2xDm0Z1bBfa+aNeM91HArE7wJR6+RUgdCiGGJhzDLljiH9mwVBcU88bof7NGDM5BPPjnOggWU5wEntRTj1nMWE1FiWhCSkgJXAjEi3G+nZ6+e1P/hQyP+cK3AOLRno6iob+YftcUf0jTAkVFVkhWDskki2sjIXDSANs0BwARrRIaM6gacI5lBZyNbE/23b88/LilPnt1pl+S1J//UNEwdm5xzczKyutT/XaNG0eeXuPkb7r2x4YYbweeSbWH78rb02STudNsS+OuDvEGD+v5/4GdHpCGT62r8X3nllXBxV/geMEXLaTMNvQRZbv9cMKu6/8F9StpCveL+PPvvv3+J0odagvp88823YB8r3N8KFvbDDQV3D8ffr8K9TLi6zZnJYA8isQIzPlCWYRVEo7oB50hm0NnIuI0FRsJHR8DI8fIJKPv3/i9/uYbqHuv/xhtvSMqNi9CckzKFSCzATOGiLMMqiEZ1AwbyKupLnN+jRw/QYhmdDYz40UDGOgATbEYcolHdgHMkM+hsZFn/vE8dP5jTRrYJ9tv3n3qoyn8mDhXMB1Y33GHjYRkwMAIhZSPBIDrImAw2jC6RJh4dpFQOYhlrrn+YknSwiZmDHXmhPLBwvWu47rruv++969q12yKU0Zqb/5BBzPZq1/7Gjh0Ln83u41q2buNef/VV+tSVryGTGSJNXDOcIXIQyyjXf7n/Kfe/q/r+A7807+6++27XvPkG7pUJE9w2221rLsr/3+vviTFj3T777gtbXrRy8IOwbtNNcNsKudl+P69/+FFQt8/eezn4cNHB3m0O9sNzFevwPUzTTsVoy9IUsSVzEMuoef7NPjhsIDUTkmWZlAjDIJLjeMZDqsHepURDQkbac7Qh+opVQvCGQSTH8YyH6K8u/uEJwMEvPLtJr7/hbrj+evcF7NmDCwcoL0BgdW4K+ykMOWaI27b9Ng5eqbif/PSnDFgD8m8ykoxruFZBqgQjE8b3KP+4z8NVV13l7v3XaNe5c5ck4ZIFCSUnMWSJlSuthKANg0iO4xmP1a39c6pjHiT9zAGpEoxMGCSLuogQfYsTExKKpRhGG6KvWCUEbRhEchzPeIh+2X8sJ6Ek5JKyZ5ZYudJKCN4wiOQ4nvGoa/kv/nqJg1dU7rVJk9zW27R3L770kmvVoqWtRnZgG+Qq9I8p55w4d81fr3FXQl9y3+h73a677mozBWkQlJAcxzMedc2/9Y921IsSyMXDMIjEvcNmuZ1+9CP32aefuu233969NOElBzPggOXUiIaEZCY5scTKlVZCFAyDSI7jGQ+bfxrgKFwJBsL7K0CnCbR5CygOcrqJp1AmAgphGiTlRkbXEv+LFi92TZs0hSxjgaz8+CkMbuD3vVKgFK1wC+PCDGEarLXlL6WSa9trSfsr5z90iloQ4SIq1/9a1/9Pmz7NwafjsDntFPeT3Xd3T8CsBKwliV1Dto1U29+KEELSE+UQpsFq2//CuhvXt89esJnveAev+d24cU+5rbbc0o40vrP8xxkcczGbatGKlaqxMqGjLFIik5AkObFhrOX+4dNk7kxCkUjJUAhjTF/FYhxu1m/Y0MEaESlaraP8FaKQ9PpStngBxlpe/uX8Q1so2KFcWoiE2nQMEWWRMmIiSZITG0a5/ZXL/3vS/uC3B90+/fq51197zZ173nnuvHPPNX1stmXbXte05wxsTW7/sG+Uu3DYhTBz09Hha/pNN90sk/tQRrniMYxv6fqPAxybJOOX2Nm4YvOCPEfBkQAQrP6BqSSeHYqCQGWNZOOqkBfkOQqOBIDK/svlX25/5esvdgqGynYi2bhC84I8R8GRAFC5/yn3P+X+59vvf9IBDl148CAhl2KJUZWI7bCWL+zM5S1RCvGEI7m4OE7E1h6uPSn7DyVSLv/Cp1rbXqSxcFvKtCiJUoincvsrX3/l/kcW58rlYa+ncv9bvv+sSfdfHuDkWjreCExF21gq0GujToTYktAYSVkmZkgDrxsptiQ0VlKWiRnSwOtGii0JjZWUZWKGNPC6kWJLQmMlZZmYIQ28bqTYktBYSVkmZkgDrxsptiQ0VlKWiRnSwOtGii0JjZWUZWKGNPC6kWJLQmMlZZmYIQ28bqTYktBYSVkmZkgDrxsptiQ0VlKWiRnSwOtGii0JjZWUZWKGNPC6kWJLQmMlZZmYIQ28bqTYktBYSVkmZkgDrxsptiQ0VlKWiRnSwOtGii0JjZWUZWKGNPC6kWJLQmMlZZmYIQ28bqTYktBYSVkmZkgDL0mmMzgKK7BSwCI48Y1QSSV0eBQ52QGUOg6ERZZmlf1DCVBRmfJSUoly+UMx4VNJLJGUpnaUnCwyCApYJCG+ESqphPqNnLJ/WxZJ0cdCTdmlFIhvhEoqUS5/KMly+0+vudg60mbGsQJpAYuwxDdCJZUot7/vsP3BAAd34oFp2zAvFaslVrzwJESJ0BJGdJayCEsLDj6CLvsvl3+5/dEFUXyFlL5BFeHlyuLQIiwtqPL1V+5/yv3/6nr/e+jhR9wmG2/sdtllZ7mgM6G95i0tsDX7+jczOCHzFNiCsHwsFCuTQqp5qNpAJO97xS4BFBX9KUuJmjs1SNUGouy/4DUkFZCWUrn8k3aJDcmWjWlYNSRVG4hy+yu3vzCuj+2KGoi2kgwfG5mVYbx2h2oDUW5/q2/7g1263dFHD3Z33XWXGzJ4sBs+YkSNGsLaVv9mgJOWjxaEsDMXhF3/ylijISSFMEKECdJ4IaNBAYjxfJhDAMNekGX/cHEmsx6mxISksFz+5fZXvv7K/Y/tY6WDsLyUziGAUe5/44Dou7z/LFq0yB1wwM/hk+zH3eabb+5emTjRbdimNVRgckMIt9ma9/+49w/8UKbbZJNNXacdO7n1muLebOFYTetfBzi5YrA1KJk0YQ5vZHEAk7lMJCqhGejk7JX9xxFMUrYcyZVXgpECljAIJSphufyhYLhTyJVnuf2V2588QSTXFkdy7SXByAUmYRBCdP7CBW7ax9NcVdVyuPqiXO3JSAy2u68A//jDWLhHE7IRLQfi4feyiGn5KIffUnMtW7YCKtonPYlKaOTqn4CoCqBvIf+aEcqnJgRSknkM+R74X7Bggftk+nS3Ajayq035Y7lXuHXgDJuXkWY4Q3bhR84csuGnzijPG2+8CdRVS6KTx5AS+Yf1JA5+odvde++9Dn4nDzbXe8Z1795dai2EUq4SlmJ7t2zZcnfRRRe562+43s2eNZuBkMQNmjV38Lt67tjjjsvY5miuvhKU+JUwCCUqIeRayidnr0T+xU0OLwIKxS7UAy7BCXWgEBEjAwsULzSi4cQURZOT1SFBhoHR2bNmujHwGxu4GdD7709xMyH+2exPXb369Vwb+P2eVvC7G5vAb250676b69mjh9u1866ufr365P/t/7wN7xk7w46Jvd1DDz2U+MZIxl2OkZOLToHAslZl/rNlR36ss5Aryyr7X3Xtr1z+oYHZdmYbm+ULvQqv/3L5O9p2fxL8FED2wJsbdtrJgQUGLAriieMgCmMfVQlw+v2fuV/Mdc2aN1NZQTVzn1kgsKy1uf/B+8+kiZNqXf5SQbF+pGa0OpTAep87D+qqWXFdZcv/wmHD3LnnnEN1d+WVf3annHIq2bJ1VsTIyQH05ltvucFHHe1ee/01SEWFO/KoI13Xrl3dffff78Y9+SS1o3FPjnM9e/YsMkk8OeXsZxiZaLRXILCsbP6xJIsOq0PywNAZHFbKwmzc0sFFAUtGFiyCM8xrvvDi8+5CGCU+/tgYiFfxZZytcxOXi71Jk8Zuzz17O/iVX/e/Dz7oZsyY6Xr17OXGPTWuOLkmZ9Y/NbiQZIaAtPDphLUi1MYtHRAFrKL8l/3HEi2XP5RAyaeTbIOycUuX2x+3IzjnejwuJz3b9yqh2L7L8j9x6FD4nZ4JbuGihW7O53Pc3LlzOVWm/2vYoKHbuv3W8BMB63IGScY5wr5x6dIlbsHChW7G9Blu6bKlkiuQxEHSvK++cs3Wh98C+p7lnxK7mrT/oUNPcC+//AqU9QKoq8+hruZRGWMfj7WBR4MGDVz79u1do3Ub0YN4FUzPcD1g0/Ru6ZJlbtHihW76DKgroLWGTH1/NX9++N0mrmO2jGcb9+5hWFA8oP8AaL5Vbv/+/d2DDzxY5/Y/+a03XY89elD7wzyMuG2EO/yww8BnhVu8aLHr0LGD+/jjj+l3D98EbJPGjUmGqdLDJi/DZBGcv+P293/sFqXLK2gkLAAAAABJRU5ErkJggg==;direction=north;" vertex="1" parent="1">
          <mxGeometry x="326.005" y="270.005" width="24" height="200.45" as="geometry" />
        </mxCell>
        <mxCell id="tvpSU6sHkQA7kPhEmo6M-32" value="" style="shape=image;verticalLabelPosition=bottom;labelBackgroundColor=default;verticalAlign=top;aspect=fixed;imageAspect=0;image=data:image/png,iVBORw0KGgoAAAANSUhEUgAAAogAAABECAYAAAAC/MRcAAAMP2lDQ1BJQ0MgUHJvZmlsZQAASImVVwdYU8kWnluSkEBoAQSkhN4EkRpASggt9I4gKiEJEEqMgaBiRxcVXLuIgA1dFVGwAmJBETuLYu+LBRVlXSzYlTcpoOu+8r3zfXPvf/85858z584tA4DacY5IlIuqA5AnLBDHBvvTxyWn0ElPAQIwQAY0YMPh5ouY0dHhANrQ+e/27jr0hnbFXqr1z/7/aho8fj4XACQa4nRePjcP4gMA4NVckbgAAKKUN5taIJJi2ICWGCYI8SIpzpTjailOl+M9Mp/4WBbE7QAoqXA44kwAVC9Bnl7IzYQaqv0QOwp5AiEAanSIffLyJvMgToPYGvqIIJbqM9J/0Mn8m2b6sCaHkzmM5XORmVKAIF+Uy5n+f5bjf1termQohiVsKlnikFjpnGHdbuZMDpNiFYj7hOmRURBrQvxBwJP5Q4xSsiQhCXJ/1ICbz4I1AzoQO/I4AWEQG0AcJMyNDFfw6RmCIDbEcIWg0wQF7HiIdSFexM8PjFP4bBJPjlXEQhszxCymgj/LEcviSmPdl+QkMBX6r7P4bIU+plqUFZ8EMQVi80JBYiTEqhA75OfEhSl8xhZlsSKHfMSSWGn+5hDH8oXB/nJ9rDBDHBSr8C/Nyx+aL7YpS8COVOB9BVnxIfL6YO1cjix/OBfsEl/ITBjS4eePCx+aC48fECifO/aML0yIU+h8EBX4x8rH4hRRbrTCHzfl5wZLeVOIXfIL4xRj8cQCuCDl+niGqCA6Xp4nXpTNCY2W54MvB+GABQIAHUhgSweTQTYQdPY19cEreU8Q4AAxyAR8YK9ghkYkyXqE8BgHisCfEPFB/vA4f1kvHxRC/uswKz/agwxZb6FsRA54AnEeCAO58FoiGyUcjpYIHkNG8I/oHNi4MN9c2KT9/54fYr8zTMiEKxjJUES62pAnMZAYQAwhBhFtcH3cB/fCw+HRDzYnnIF7DM3juz/hCaGL8JBwjdBNuDVJUCz+KcsI0A31gxS1SP+xFrgl1HTF/XFvqA6VcR1cH9jjLjAOE/eFkV0hy1LkLa0K/Sftv83gh7uh8CM7klHyCLIf2frnkaq2qq7DKtJa/1gfea7pw/VmDff8HJ/1Q/V58Bz2sye2CNuPncFOYOewI1gToGOtWDPWgR2V4uHV9Vi2uoaixcryyYE6gn/EG7qz0krmO9Y59jp+kfcV8KdJ39GANVk0XSzIzCqgM+EXgU9nC7kOo+hOjk7OAEi/L/LX15sY2XcD0en4zs3/AwDv1sHBwcPfudBWAPa6w8f/0HfOmgE/HcoAnD3ElYgL5RwuPRDgW0INPml6wAiYAWs4HyfgBryAHwgEoSAKxINkMBFmnwXXuRhMBTPBPFACysBysAZUgo1gC9gBdoN9oAkcASfAaXABXALXwB24enrAC9AP3oHPCIKQECpCQ/QQY8QCsUOcEAbigwQi4UgskoykIZmIEJEgM5H5SBmyEqlENiO1yF7kEHICOYd0IbeQB0gv8hr5hGKoCqqFGqKW6GiUgTLRMDQenYBmolPQInQBuhStQGvQXWgjegK9gF5Du9EX6AAGMGVMBzPB7DEGxsKisBQsAxNjs7FSrByrweqxFnifr2DdWB/2ESfiNJyO28MVHIIn4Fx8Cj4bX4JX4jvwRrwdv4I/wPvxbwQqwYBgR/AksAnjCJmEqYQSQjlhG+Eg4RR8lnoI74hEog7RiugOn8VkYjZxBnEJcT2xgXic2EV8RBwgkUh6JDuSNymKxCEVkEpI60i7SK2ky6Qe0gclZSVjJSelIKUUJaFSsVK50k6lY0qXlZ4qfSarky3InuQoMo88nbyMvJXcQr5I7iF/pmhQrCjelHhKNmUepYJSTzlFuUt5o6ysbKrsoRyjLFCeq1yhvEf5rPID5Y8qmiq2KiyVVBWJylKV7SrHVW6pvKFSqZZUP2oKtYC6lFpLPUm9T/2gSlN1UGWr8lTnqFapNqpeVn2pRlazUGOqTVQrUitX2692Ua1Pnaxuqc5S56jPVq9SP6R+Q31Ag6YxRiNKI09jicZOjXMazzRJmpaagZo8zQWaWzRPaj6iYTQzGovGpc2nbaWdovVoEbWstNha2VplWru1OrX6tTW1XbQTtadpV2kf1e7WwXQsddg6uTrLdPbpXNf5NMJwBHMEf8TiEfUjLo94rztS10+Xr1uq26B7TfeTHl0vUC9Hb4Vek949fVzfVj9Gf6r+Bv1T+n0jtUZ6jeSOLB25b+RtA9TA1iDWYIbBFoMOgwFDI8NgQ5HhOsOThn1GOkZ+RtlGq42OGfUa04x9jAXGq41bjZ/TtelMei69gt5O7zcxMAkxkZhsNuk0+WxqZZpgWmzaYHrPjGLGMMswW23WZtZvbmweYT7TvM78tgXZgmGRZbHW4ozFe0sryyTLhZZNls+sdK3YVkVWdVZ3ranWvtZTrGusr9oQbRg2OTbrbS7Zorautlm2VbYX7VA7NzuB3Xq7rlGEUR6jhKNqRt2wV7Fn2hfa19k/cNBxCHcodmhyeDnafHTK6BWjz4z+5ujqmOu41fHOGM0xoWOKx7SMee1k68R1qnK66kx1DnKe49zs/MrFzoXvssHlpivNNcJ1oWub61c3dzexW71br7u5e5p7tfsNhhYjmrGEcdaD4OHvMcfjiMdHTzfPAs99nn952XvleO30ejbWaix/7Naxj7xNvTnem727feg+aT6bfLp9TXw5vjW+D/3M/Hh+2/yeMm2Y2cxdzJf+jv5i/4P+71merFms4wFYQHBAaUBnoGZgQmBl4P0g06DMoLqg/mDX4BnBx0MIIWEhK0JusA3ZXHYtuz/UPXRWaHuYSlhcWGXYw3DbcHF4SwQaERqxKuJupEWkMLIpCkSxo1ZF3Yu2ip4SfTiGGBMdUxXzJHZM7MzYM3G0uElxO+PexfvHL4u/k2CdIEloS1RLTE2sTXyfFJC0Mql73Ohxs8ZdSNZPFiQ3p5BSElO2pQyMDxy/ZnxPqmtqSer1CVYTpk04N1F/Yu7Eo5PUJnEm7U8jpCWl7Uz7woni1HAG0tnp1en9XBZ3LfcFz4+3mtfL9+av5D/N8M5YmfEs0ztzVWZvlm9WeVafgCWoFLzKDsnemP0+Jypne85gblJuQ55SXlreIaGmMEfYPtlo8rTJXSI7UYmoe4rnlDVT+sVh4m35SP6E/OYCLfgj3yGxlvwieVDoU1hV+GFq4tT90zSmCad1TLedvnj606Kgot9m4DO4M9pmmsycN/PBLOaszbOR2emz2+aYzVkwp2du8Nwd8yjzcub9XuxYvLL47fyk+S0LDBfMXfDol+Bf6kpUS8QlNxZ6Ldy4CF8kWNS52HnxusXfSnml58scy8rLvizhLjn/65hfK34dXJqxtHOZ27INy4nLhcuvr/BdsWOlxsqilY9WRaxqXE1fXbr67ZpJa86Vu5RvXEtZK1nbXRFe0bzOfN3ydV8qsyqvVflXNVQbVC+ufr+et/7yBr8N9RsNN5Zt/LRJsOnm5uDNjTWWNeVbiFsKtzzZmrj1zG+M32q36W8r2/Z1u3B7947YHe217rW1Ow12LqtD6yR1vbtSd13aHbC7ud6+fnODTkPZHrBHsuf53rS91/eF7Wvbz9hff8DiQPVB2sHSRqRxemN/U1ZTd3Nyc9eh0ENtLV4tBw87HN5+xORI1VHto8uOUY4tODbYWtQ6cFx0vO9E5olHbZPa7pwcd/Jqe0x756mwU2dPB50+eYZ5pvWs99kj5zzPHTrPON90we1CY4drx8HfXX8/2OnW2XjR/WLzJY9LLV1ju45d9r184krAldNX2VcvXIu81nU94frNG6k3um/ybj67lXvr1e3C25/vzL1LuFt6T/1e+X2D+zV/2PzR0O3WffRBwIOOh3EP7zziPnrxOP/xl54FT6hPyp8aP6195vTsSG9Q76Xn45/3vBC9+NxX8qfGn9UvrV8e+Mvvr47+cf09r8SvBl8veaP3Zvtbl7dtA9ED99/lvfv8vvSD3ocdHxkfz3xK+vT089QvpC8VX22+tnwL+3Z3MG9wUMQRc2S/AhhsaEYGAK+3A0BNBoAG92eU8fL9n8wQ+Z5VhsB/wvI9oszcAKiH/+8xffDv5gYAe7bC7RfUV0sFIJoKQLwHQJ2dh9vQXk22r5QaEe4DNkV+Tc9LB//G5HvOH/L++Qykqi7g5/O/AOdxfFHM3PBIAAAAimVYSWZNTQAqAAAACAAEARoABQAAAAEAAAA+ARsABQAAAAEAAABGASgAAwAAAAEAAgAAh2kABAAAAAEAAABOAAAAAAAAAJAAAAABAAAAkAAAAAEAA5KGAAcAAAASAAAAeKACAAQAAAABAAACiKADAAQAAAABAAAARAAAAABBU0NJSQAAAFNjcmVlbnNob3TxbEbkAAAACXBIWXMAABYlAAAWJQFJUiTwAAAB1WlUWHRYTUw6Y29tLmFkb2JlLnhtcAAAAAAAPHg6eG1wbWV0YSB4bWxuczp4PSJhZG9iZTpuczptZXRhLyIgeDp4bXB0az0iWE1QIENvcmUgNi4wLjAiPgogICA8cmRmOlJERiB4bWxuczpyZGY9Imh0dHA6Ly93d3cudzMub3JnLzE5OTkvMDIvMjItcmRmLXN5bnRheC1ucyMiPgogICAgICA8cmRmOkRlc2NyaXB0aW9uIHJkZjphYm91dD0iIgogICAgICAgICAgICB4bWxuczpleGlmPSJodHRwOi8vbnMuYWRvYmUuY29tL2V4aWYvMS4wLyI+CiAgICAgICAgIDxleGlmOlBpeGVsWURpbWVuc2lvbj42ODwvZXhpZjpQaXhlbFlEaW1lbnNpb24+CiAgICAgICAgIDxleGlmOlBpeGVsWERpbWVuc2lvbj42NDg8L2V4aWY6UGl4ZWxYRGltZW5zaW9uPgogICAgICAgICA8ZXhpZjpVc2VyQ29tbWVudD5TY3JlZW5zaG90PC9leGlmOlVzZXJDb21tZW50PgogICAgICA8L3JkZjpEZXNjcmlwdGlvbj4KICAgPC9yZGY6UkRGPgo8L3g6eG1wbWV0YT4KKx7eXwAAABxpRE9UAAAAAgAAAAAAAAAiAAAAKAAAACIAAAAiAAA2RC4515UAADYQSURBVHgB7F0HnFfF8d9DiqiAgIggLVLsUkxMxKCAGhuWJP6jsSf2itGYYomYiMZoDGgUscWGvcYWW1TsRixgo1mQakcFaXf7n7IzO/vK3VEF/b3P3Zv2nZmdffvK71XnS6aarB4UVldjBGZziuBQk/hxWIPN5glyDgEKq/su5e/atauvcs67qir4d75v377+u1Q/DYnv8PKv1A89UFn+hdu/GtgQHHPscb5Jk0be4TYC/rtu0NWPe/31yvaXdhir7v5n2LBhukwvv2xk4fLHbQPvF3ku24pIl039Z//5L36t5s1p/4NjrEGDhv6QQw7xc+fOXSH5MYmpsLL/M53BbE6xWOs/bkeOPfZY36RxYzjWgOMM3I7gcQcOJBBgy4LLHg5DZEJ1lZFFH2gOn9gxJPoKVaeMOtpz8Sr5qf/fHj/ebbbppq66ulp7uEmTJu7t8W+7Lp27qC5lpF+FBquIQs3yqfR/ZfxX1n+zvVvFtj9fffWVe/rpp12LFi3c97+/pWvUqDGs9Lqi8wZARKHGXln/V871f99f7utuufkWWq4vvvii69GjBy3L3PIKm/iSBV2i1oEAI6Hu+hcuXOhefPEFN2fOXLfZ5pu59u3aJ1mjIHGFBouIQivjDzqGtzn16f/YvwXHa9ao/aodzVYRhSouxvtqDm9Hmjdr7rb6wQ/gUBEOPO1xIUZSf+TRHA4UrZ4zxnnOllFkRHIkXYHBqr6L+atratzdd93lXnn1FXfZiMvcp5984vAUYpjR4mq//vruV786xHXr2t117dbVbfPjH6eL0XYiusK/2f1V+l/6pKBjrOq7OP4q9cd1pbL8K9v/b3L/B2fo3HbbbuteenmM6wrb+heef861bt2att92ZtfZuHGPiJwdTKQrMFhVZfx/t8e/nkHkoWSHBmqsbHlGJ+agEh9GwxyPbHJHJqAvPDuZzWFly3+788/7ep5rukZT7VHqPywfJj7Lg7834tSvXz83evTooOB+0nml/yvjr7L+xZUFudKzg7zWRLCVLR8QBarK9o87ReeV7c9Sb3+mTpvqBvTv7yZNmuz6/bife+SRh12T1VeXoRaHK3Ha87CvAL7S/0vd/9zB3K9JZxeoZKHoUljF+58OEO2vBC4QuyHsVahSLZf6R/Y3UZtqkk5EAYE4KzwoBIs5S1nJT50F/VXpfxw1NHbolgja3JEqHW08CsnAYGbtvDL+oDcq619l+yNrjl056t7+vjX+Tbf/fge4d959182YMcM1xYMTHlF8ECLbqsr6B71S0MfLYPsza+aHbuddd3GvvvKKG3LWEHfmn84MvV3Z/sU+t31BQ5Rny6D/MQeFMUuYs9mclv925OcziFSXKRdZnArGOhvy88QlEerAoplS0yyyqK/kx16o15R0eSLk3XNm6nqaVfofuouOR7HbKuMvP3hKNMmYSoS8Q85MQ49mlfGHwy7XQfk+zGoSl0TIInlzi1od3tT1NNP+//jjj90YuKx5yy23uJtvudnNmzsPbJ4OENdbb71c0CRlIuSglKOu/OSlDczHyGqSlImQRdav/pUx/9w5c9z5F1zgvr/llm63QYOSwpKSEyGBkZAzo8L8CF8Zxh81tLL88wuvRJMs00TIO+TMtSz/Knz2JV0OhA5RTaigtlYEsVxilLaBGR6HgQ2SZJIouVszNSK7Ig4n8CtJweoSIzuTbyV/pf8r46+y/vEmIWwvYKNi14rUhhLicPrubH+OPuYod9211zu89w2npk1Xd1/DLS8yTZ8507Vr21bEsFmubH/tGNHOEQa6p679zyJ4CPH2225zt91+q1trzWZu++0HuoMOOihEqHKLFi4C223u6Wefde9NnuxarL2223jjjd2BBx7kunTpBLg4RiWt0nrkV2xYoix/98a/HmhQB1TqhzOINdALfPo0/IiIYyVw2E2ya8kZ66FI/E2fsytbaZ4AY+ASdQTUwSX+KOCkBbGV5gmQYTgvUUdAHVzijwJOlfzcD3YXk3RUMAMpUUdAHVziX+l/7q3K+AujhkcHzZOBEgdViToC6uASfxRwWkn7//LLR7oX//c/16bNum7bfj92/QcOdB07dnSfwhlFbPP06TNc0RlELqp4virVH5dLrCVpf1TXm0v8S5b/cccf70Zccqnbdrtt3bNwELhgwUL3y333cTfedJN7bew499M9d3fvT5nittrqh26DDTZw/4NlNHHiRLd2y7XdzTfd7HbaaafS9tQnP2ESYAxXoo6AOrjEHwWcVtLxH9vFzcR50v6orjeX+K9i9fMl5rp6QW7qhuKK7rmsradi5xT9WjeeEWiUga3khxUK1qhK/1fGHwwD3bbm15ScJq5WlfUvf7bQdFfsKKMM7Hd8+9NmnXXcx/AmBZymwz2I7QouMYeeypHYrZXxVzb+8L7C3n36uDOHnOmGnDnEDR482F100UXUl1decYU75ZRTXKfOnd2/rv6X69WnN63/X301x3Xv3s3NhDO622yzDb3iKNf5oKj0v2wvK+OvbPzRuIkDJRlGBZeYg502isgX745K4rEzGmUqdA/eQEoPOCv5Q9cXdqBZ8aWjDa30f+yMwu6rjD8aXJX1r7L9gfWjeBWBwUGGKjib2MZ9AmcQca3Bh1TwDGJYg+J6Zjk0ylQcHKxgANzSbv+feeYZd++99zp40W88GtL8kCPcUIfNULW0HvYxHn54axMtKLP/sSbkIVv0A54mTGCBILRdr407+eTfBoCQAASC9R/661+7G264wc2YOcO1btXa/e53v3Pnn3++gOlS8lPwlorWcKAuE0bYZeed3UMPPeRWW201h/eMrg2XnWlCo0zYntyU5i+GAIYMhVbpwVxkUlTyx34p7L5Vp//1ErMu2ExBoZRQcCxMV4QMnoGME1+h2muJwgiGFWyqCpIohQpYKRvELDRjDqKxGlawqSpIohQqYKVsELPQjDmIxmpYwaaqIIlSqICVskHMQjPmIBqrYQWbqoIkSqECVsoGMQvNmINorIYVbKoKkiiFClgpG8QsNGMOorEaVrCpKkiiFCpgpWwQs9CMOYjGaljBpqogiVKogJWyQcxCM+YgGqthBZuqgiRKoQJWygYxC82Yg2ishhVsqgqSKIUKWCkbxCw0Yw6isRpWsKkqSKIUKmClbBCz0Iw5iMZqWMGmqiCJUqiAlbJBzEIz5iAaq2EFi6p14QARD0BwmjljpmuL9yDidr8AT6BgELNQtmX9jNWwgk1VQRIl0P3238/dBJdh7UQXWxADkzQzlUBLBgClAIbRHA4c4eASjxPthIeTeC6qtsnmbwDCZHj6uwucAdQJ3TEvTAsWzoeDwnXcQLiUf8/d95D+Jz/5CbzK5lHK33a9dnQ5uQO891Y7PPj33bqvew7ei4jT22+/7TbccEPiBSdphAajmBMsCTlgBioLXHBCNbAwbBCzULFKGJaN1bCCTVVBEqVQAStlg5iFZsxBNFbDCjZVBUmUQgWslA1iFpoxB9FYDSvYVBUkUQoVsFI2iFloxhxEYzWsYOMZRDEKFUQBZUg5MG/JaqKsnDBCC/KKiiHlwLwlq4mycsIIlWQFlCHlwLwlq4kycpMnTXKvvfqaa9+hvdtisy3cmmutWZA1qtg7xogW5vKWrCbKygkjNBvUyAwpB+YtWU2UlRNGqMmXZRlSDsxbspooKyeM0GxSIzOkHJi3ZDVRVk4YoSZflmVIOTBvyWo8vVPttddede3adXA9e27u1lwDxpzsLMPOK5tX5GWRX/aQ2jJhhEqyAlrJj71X3lF5S1YTZeWEEWr6HQ8QPwoHiHiJGc8grsj8pinEchN5fuLgE93wi4ZnIW51eLhmfTyoQliur2KR+IgmHggSpAFA5dQgqPBAbxHcol+zaKGbAw/tzJ492y1atCjmAnsV+BceMMo6BHH+8pc/u9NPPyP6mfZMmTLV4UMmt95yq9v7//amh1Fatmrp8Ms4GOL2O+9yP/vpXsaXm1pTvYjOKH7x+Re0KuFDRasnrx+yLrFe1kZZOWGEWvcMz5ByYN6S1URZOWGEZnJakSHlwLwlq4mycsIItQkzPEPKgXlLVhNl5YQRmslpRYaUA/OWrCbKygkjNCSM9yBqCwSBFCccpsDjufDAEmWtsEYSf1AVTGolRiWDFB1SnL6d+RfCTchDzznbjRx5uZs5ayav9VBty7VbwKsM/u4OPfTXVP23tX7eRsqyDqUSEd23e/l/E/UvhCchzx56trsCHkSYAWeCZMIb3S84/wIYc4eCqtL/us5RB307tz+LM/7atIF7ED/mexBn4EMq7fg1NzJSeByJJFRGV0rVSoxKBiQ6pDjV3v9fzP4C7t/r5d59512Gh3l/eLH0Y4895ho0wKO+OEn0xanf7v++/OIr9/4H77l34KXVb8JZu6efeto9/cxTbvbns2OSDNe9e3c3YcIE0hblX7BwgWtMn0Z07oUXnnc/+tHWhO0GX8iaOHES8OCV2f8+Bw+y9IV7D7F/Nt9iMzf2tdeIj+svhcjNivKnIEEgxan2/kcrT9YvasUqVFBL2v/s59xXX37ppkyd6mqq4YieDvAlMtPiM718MN8Amufph0DwCSViGxnBinbt2sFXa/CyPuAy/Y9YyYh8lFIt2+JcrcSoFAEaFW04hcZ9U/n5C9jmQ8/w2puiqRghWqZTp07zfz7rLL/Xnnv6Tp07ebg3wnfo0MFv/aMf+uNOON7D/RJ+3rz59BFp9PjFPvv4BlUN/NSpU4pSJjrJlCi58aAqscIHqHnKfLAc1GJZlvWnbYMcJfnHjR3ne/XuA/eM0g0y/qCDDvD//Oclfvvtt8f7SOG2mAb+iSeeSMJpewu1JdaS/FizehCjUhLdCsUI0Qq1HuX1V/Kv+P4f+/o437t3b9jq8Jg74MCD/D8vgTE3cHu8DatwzNmlWbKEA6TEWhl/2j9JD4GgMjEq2S5P+GKEaIUmLqXbn8Vd/9ZZZx3cW9H/jBnTTRLJK9SYgC3b/i1ufoxakoESPvfcs75hw4a0PcV9P/7jdvTPf/4z2dE78QdBZWJUCvg8KUawtrp6kX/yiSf9/gcc4Fdv0kTzS59he559/tkYFNw0HjEq+b+d/zddRwcPPlF9IoJVf/zjqbpMfvvbkxVnmRXV/6Yam365Lv8tt/y+1i/9jPtTu/xFL+OBZd7+0XYw7H9x+yfbRTpCDNtI3A/DWWOqKdv/XKhohSblL9f6V1R+/IpJHKyJUFw0NyydL1i00MNNtX7NNZvlFxqtsLxQcEE1a9bMH3zwwR5uzKUDSFxozz3/fAyoaZWJthJOkLI/EqpwAagiZRKzCsqk4AJJkJJXqEIFAIrXXnvNw83ENJAbNWrkR40apf0/Z84c36ljJ7JtsMH3PMr1mSS85BWqvgJQRcokZhWUScEFkiAlr1CFCkAVKZOYVVAmBRdIgpS8QhUqAFWkTGJWQZkUXCAJUvIKVagAVJEyiVkFZVJwgSRIyStUoGNfHZsbc2LDMdaxUydab+H1GX7OVzLmJKogy6kgJa9Q9RCAKlImMaugTAoukAQpeYUqVACqSJnErIIyKbhAEqTkFapQAagiZRKzCsqk4AJJkJJXqEIFoIqUScwqKOPhKWbersOOFB5SSZ1BEqTkFapAAagiZRKzCsqk4AIJkeecc07cycM+BfcreIICHmKJDSzwRVWSSQVlSryiWpBY90cff+SPOupo+MElByJ4wFrljz766OiQ4cQf1YN2G0Tbf2z/3XffnUFG8XuwrtKBD8R++lmoESbpd6GKtglUGZnErIIyEVjCCVLyClW4AFSRMolZBWVScJAOO/xw36tnT9+1azffouXaPD7DgR0fCDqP+1d4V6Tv06sP/Tju06s3Ufyh3Af+N910U9+lSxffqHHj4M/jhvuV+S+++KIwv1VKS6VuoYoRgCpSJjGroEwKLpAEKXmFKlQAqkiZxKwCM3SAaOGsVhSZEl0mO9yT4QcMGMBnvsKKiR3cp08ff9jhh/nDDjvU9+rVi3/hBbssQFkQd955pzYhyRW0iS6TXx1LmVgLcTCLmrwT21JEoluK/JMmT/brtV1PB+PwYcNyDTjt9NN1sP/1vL+RfVnlpzgw43i51PlcAVLJjx0Rem0plj9FgFmIFHo3JWxLEYluMfNPnjzJwz1jOuaG/WNYLv/pMuZgp/bX886LtYamLU1+Wy3FgRnHS+sWKclVyU89kPTJYi5/29sUB2YcT3o8pUmuYGq9ThsaP7i9njHdnkFMfYulmI04mEVN3oNtKSLRldRfXVMNZ8NhPwRtlP0Kng3qDFeyPvvsM0pEcWCWRk/bkOQKpkRXkj+N4v1TTz3lu/forutdy5Yt/bz58epZFo9yNcRu3qIF+TRosJr/9LPPCZbND+9JpP0t19dZz1TNmD7Nw+txfDXsk+MUqyUOZlETUcKxLUUkunrWL/FsNooDszR6RCKX5AqmRFeQv7q62m/dd2td7rj88eBwwsQJGlFjF+THYxh4r6Q/4MADfUPw4+OTKt90jTWpBXXlD80sIexdW37rmOQKhkRXUL/1z/NLlz9zgBiDxaVodJDdStjW3//+99Ch4dcSrJCtWrXy9oCPG1zj4aZbf9LJJ8ElZcTCP2D5dK7zF198cajLRFdWGcJYSfqKdNYQokVSqzHCbHXqosxS5f/yyy99t+7d9FffboN2M3mFrfG33357GKCOLjmnPZ5Kq1L9UmHt1PS1ssqQq5Uq9XNvUp/YjgmdTGOuW9xJFY85r2MON6x4m0Pa0WlgK1X633SV7ZjQ/5HUaoyw5bj9MUlqYU07la3x9hIzPKSi/ivb8p82fWrSVtnR7733z7XNtTNatNnQGh04W6mu+uGJb9+jx4a6Pb/jzjtqTT/mpf8ptucWPQPWZuT8RxxxBN0WgvWdccYZ3CaADT5xsId7Lv3nn/OBZUyWxoj6LGdwyipDYCvVVX+Mbr2iNs8ZnLLK1Jq/fbv2ejyB/bLddtuZ8GkMY8iwNR4+LanLAJ4KB3vqa6WVqf5MM3N1ZRQloqkusJkDxLQ7DLwgYA0ddct9dHKwd8899xRgJW6NfxjuQ5QzGvJL74+n/lF9bE7LK0AZttaOUXDov4gmDmYPPPCAf/2N1xUYEdJmNWUYRlp8BpCIxxx7LA08rBmeNvOT33mnMMHTcElE+nL1pk3hns15SZwoLF7+LJpkVsaQwFmV5RMQCWytHRO9smiSC5ytyvIxknBsrR0jWKkroomLogKtyvIKUIattWMUXDr+IoI5G8/yWVy+ojziWDPmmsCYe+edyQqi2CEBXobjnSmMTRxz83nMLW1+TQYMx4oRiYuiQq3K8gpQhq2CufAfF/rfwY9VeJpTEZZJ0aE94myAVmV5AwlsNmIeYTVZNMkFCazK8jYW82ytHRO9smiSC5ytSvh1whlE3C7FS8xsFUzMVMxl0SQXOFuV5fNR2ZrFwDsRdSzLmMZt7mUjR0KIiCYuihreqiyvAGXYWjvG+w8+mOK/16ULtWnPPfdIvTPOf7/g79x26OcTTjjBtFbdiGkFZyOltomTJpHu63lf+1atW/uBAwam4CBlW0tyJj9Crcry+aBsrR0TvbJokgucrcryMZJwbMX5hPHjdZ8p/RLvP2V8RBu5IAGq+g/oT/27w447Mrhwno1YCFJlFk0yKxWDjFVZPgGRwNbaMdEriya5wNmqkNcDRGuIYZGTG3wNIrBDhpwZfsnwGUS8ps+TwQZNJDV+Ipz6bdZsLVgI7HfwwYckHROxyJXnT7vTetWen5E1/o033vRNYYc4fPhFyzX/k08+SQ8ByOAdPPgEqquoxS+99JKeKkc83oDN1ZialFXGhsrFTo3iI5StqWQ9ll//p1msZPlKfl42Zgkpq4ztMOBr/JOjzZijHc7ggBEfod6/9NKYsMPh9fH5554z8Vb+/v8MLsXJuvX4409Q/aaADCt1C2VzKlmXlb9+29q6qonbzLTiVLIRa7xcYsY+pgNEBStjHYAv0yNMbELZNZVYJxa2GYSyylgHOLg6Phww8HjGA9umTdeA7f0bgBMfoZIlCWGEpV/+uP3HfR1e9vzwow9D7Hz+QYN2p3GMB7R33CFnG9P88xfMh6twq8E+ogruodtE23nySSeT7xPwsEysUc2GkbxC2ZRKBg79xTaDUFYZ6wB8mR5hYhPKrqnEOrGwzSCUZebyy6/Q9V+OKUY/NdoGMbw4C5UsEfK7U06heL+G5ySwvYw0eGWVic7ElenRKDah7JpKrBML2wxCWWWsA/BleoSJTSi7phLrcA4HiBmTispEdIb7cb9+ZsE4v7v5hZSGhVghnJyWvfHGUXrUv8MOO8TImlaZaMtwKUIWZAAlRhCCLPm//vprv/kWm1P7hw8fHiOrnzLRluFSRHH+BQsW+B5waZl2YHR5vYGfMGGiiZRGeebpcDYHNmroU9uNyqlncX5OBMgAlvpjA9IoglOHCMxxqWclf9IfWSHIK6L/ccx1N5eW4bUO8Csb78eBpZq0izR0I78cYMUxlwOSv52liG9u+U+dOlW3Q/fddz83MWkcCEEuqt/WJDh1SIypkKQAx0TOCqtw/tJLzEl3rDz141WXXj176ZiQK1Wbb7EFnGHOXpFJFpRZ7Bl9UisLKaL2+nfdZVfY31XByQi5nUoCchS8h7J582bUZrxM/PEnHwkgR7faaivCdeveHc5QfkCXmfFJ3JNONk8zJ40DIcjfxvG/33776bLGA0Q86TMf35ai0+LVPwyeDcAfFUOGDNEIRUzSxd/S9V/PIOoICj0Rh3vksp3UfC0e0HLUvgk8MYRT2nFRZn2c77XXXrRgN9kEfwmlXjFr5Ci4naUuasmqRWbK88OPOFIHFR8gCorDxKyR0wTCpC6iTSq5+qqrKY9spHbddWfC5V1Zg5fo4866yl999VVJPE2CTD5IYWyBMbVzG01QrItVR86iCxMFQBopNtNmzmIiasXnh4/e+3vuudvDd021xFh15NQoTL4IsmTVIjO1cwmEVFCsi1kjZ9HEpy5qvvKqq5IxtPMuuxh4Pn865hyMuX9BayR45DSBMAIROdCsWmSmdm4dBcW6mDVyFk18cMHXa+E6g+vYfffdpy0XvES2mUUnmGXZ/9nYIq+q+Vu3waeY+WwcfA6urMtUL/WKQuQVWf9bb73l11hjDW23bH+PPZafJpY2SRuX9/KH9xT6Dh07+oMPPpBSZvMvgjeBdApvE9h9991rXf/GjRvnO0IsqQkfaMFL0vLrLxtbZKZ2Hqtf3vVjJptZ2hRbkGriWh+5iA1ccGnffn1d/3E7MHD79DK7RGZq5zaioLwfMeIyincV7Lux1dFi8WTKKFjM4kVmaufWXVASQ+RvNj8dIMqviqQp0j5ory2J+GBbay28TMxnungDXeUfffRRUzUAA9YolcV3/aFf8+YtSLe4+TkQ5ghJcrnQpumUufTSS5N2Dxt20XLJjyt9N3gMX+/ThFoffPBBbYcwsfk18AtzuN6AjBuAG264vrT/2R9rDEXmakWbZCmn0d2AcywraG5slCAGyCQBYILNmIMY3Q04x7KC5sa2LPJ3o7NtVf6444+LDTQ5TGYux9iWRf5lWT8+kcf1xPXywf/8J9ZVwOH4lwMAXB/hu7DJclvZ658KZ1FkO4QHiHGClifLKlostyz738blsZFqiqSVPT98A1gPRughlaRPsY+DItFjpWgrqjjVRXcDzrGsoLmxcY6gSPTeX3lluPRIV27i+nDnXXclDVhe+Re3/omTJtK7gufjPcCmFmbNPNjGjh3r7733337K++9zPcZHFTldUjoJK0v9S7L/nzAB7j+EbZb9P/vsoaFIKH4J6j/77LMp3qOPPML9k50nMTFHUCR6dEIbOdc6i+4GnGNZQXNj4xxBkeiXTX5zBjFTQ1EyhfCi3GyTTfkyMV4OxX9YUB07rA+nxz9hpMZQJnQYy/giT3lgZe7XmZvLjUsmGIhhKOUwiDTDTO3K+DvvuNM3arhaMqCSS8ycLLRTBI4bpfrlH3UDXEY3g7fHhj08vPkdwsT2xJjMHXPMMeAT7p0Bes011wSI9alf/pjG+BJr5GwDRM5BrOLbk/8leXIQxi++y1MnWy4prWLlrf/GUTfQmJOzCz16wJiDy1c6URm2Fu9pzEH94nPNNdcWDFHrs3LVP3UaXGIO25/777u3YNibthfUr31jGePCaqtYueq3za5r+8edY2tJvVUyEDxAlO0YP6Sy6tS/D3yMQdouY6R1q5Z+ypQpWmohY+pnu1WsOvXn2k5l2FoKq19l1v/Lr7g8HoPAvha3YU89/XSmbFMvsOPffsvjq73yT3uz25FHHkVjpvxWsO/O8jcHiNyJpisLNrQymBiFX0yRlU92Lijj4+H4a8iOMokrVCLdeeddfMYiZLN25ZXxfiHcXzUKznCcdNJJfgd4JQe+V7B161b+J/DE0Xl/+5t/FU7lxyk6VkN8vLfAvueINxhVftCgQf7cc4b6oeee44fCC1fx/YT4VJh6KyORjYJYlnFuLP77W8LXUsKgRXruuecmdonGlD237tuXd9S4w4P/+/GeKhuUwEZBLMs4N5ZEEr1QzmnnbLF25ZURvFEQyzLOjSWRRC9UIkXKFmtXXhlBGwWxLOPcWBJJ9EIl0skn/1aX0ZhXXk78FauMeBkFsSzj3FgSSfRCJVKkbLF25ZURtFEQyzLO+2y5ZbJOngNjDifxEErKMOtrxxyM0/vDWTjFKiNeRkEsyzg3lkQSvVCJFClbrF15ZQRtFMBOnfqBHtzemz2DGFzEQ6hEipQt1q68MoI2CmJZxrmxJJLov4b74/Aga8GChRIs0BhDDOKTCZrEZVv0VR8KEiXhhEqOSNli7cjPnTOXvg5C23nYHuGl0qRKcoi+1t/iRC805hUuxkg1aTq2mSjERl9jIUc8CPhely66TlAdMMb79dvWL4IvoMQpxhCdxlImZwklRt8UGiXhhEqkSNli7corI2ijIJZlnBtLIoleqESKlC3WrrwygjYKYlnGubEkkuiFSqRI2WLtyisj6KjYf7/9dfuNy7Yp3FaA92DzFHHCIcXXBOFJmBf/96IEBMoInI+87DLfb9t+fqGMD3FWtFEQyzLOjSWRRC9UQynDFmtXXhkBGwWxLOPcWBJJ9EIlUqRssXbk+RKzoKwVdXLuE9kCzK233mpWPPzMTTzz1aplK3///Q+IVwggUQJNiUkS3DL5R48e7TfZeBOTk89a8kof858ET3TBt45jbuBOP+2MQj/+zA7GkbZzzHfeeQfaI+01TYuqJH7sIFaPfxtPfduYVfAVlVeDT1q4hFy0cBF8jWbNpJ3Ph6/MCCabRxuhgDRFahdQoCkxRUoMwRtTVGloYrL6QlmUgabEJFkx+asXVcN9Px2pvzeGcZXr26VY/vlYWNPyrR8fRJF1QSh+uYcmSp3Pj58JW4PGXByrMuaWZvxrqZw9lJ7Pj2bRRiY41bP/+SEVXv/1ErMGlVg2UzCmxDREfGIQ5ZQJGCFZfZDxgYnbbrvN77H7nr59+3Zw+wj3M9Ie3Xv4c/96rtd3C+ZiRIVyykhiaWt9ZHEONCVUP77yCH984yuSDoRPx+HXdXgs8XZx3Tbrejwrh18GQRy+t5UmCS3NKJRFmSYW7ZIu/7ry44ulG67WKKkDaxpy5pDUVRsSiqjn+EuDiG+gQii2JAg0Jctl/El67ttvX/711+f7D3Ffi8cfO+4YHniVUqUDSK7x8+Fl5a3gDDI+US5fjVKoMsFpOS3/BfAk+n//+184ETXcnwqv+DsK1iX8+s5xxx7nHwmXtakFyym/DrRQr5atTKw/nkE0jZE+RSo+QhMbXC7FB0zsBkR2THJGce+99/Z4CYj8c0GMoo78xxxzrK9qgIMAz1BuRE8YXXfttXRZsFfv+MSa5O8PL8q0p5BvhhdgnvSbk/yJJ56Yay/e8HvSb35DG7yTAYMvH50Dv5zrql/6IlYRubPgCSjtF/jl3a59+9iZ4qi9Cwqo/5VXXtEzIeKLX1/BKUYmMZlFW+QSgPjnzEZRR/8bZDa0aVs5iiw5s1F8A/lHjIj3ol5gLy+bCqWFQo1J2WiLnBoDQ5ac2SiWQf342ikZ/7ietMcxV0d+HHMy1pCi3+Qw5tBVWihU4lkabZGzduTJkjMbxVLU/wGcQZQa7rvf3oMYW7E888cqIoeZ8aW77dq108vfa7dYG767fhBtgwYOHKhtbgFfz3ji8cdjYw0nEYUak7LRFjk1BoYsObNRhP6/+aab6atXa8L95fjRg7bwFZ6O8COqU6fORNuB3Lr1Oh7vP2/cqLE/7bTTdIzE0ZLNvnyXf6wictkWnD10qPa3jJXVVmvg8aQDTUsx/mLWyGXzkyVnNopK/myX8WIJWtNTips0cVJumZ4DVwKLJun/W8JJrW222QZgJuoK6P8PZ30IX5c7nNYdGYNZOmi39AMa0kKhpbWRoRxFlpzZKErqjweINrPxqz1vjX8ZLsvhhg8LjWcQ+dem3POB31++8MILPd5AL/HCVXybNfKZ/JePvJwPnOBA60D4HE58GS4D8WwhPuqezX/K706JMQOHlxVooUAswefuQczkt+MoDZgFxiG30UYb6Y4B8x166KHRFdyK6v/nP/8JbQtncqB9zZs39/gZoSXJH5MVcCX5FZktKyuXAmtpqvoAsxLknwafpZJxiwdSc+bOiS3M1puVFZk35DUKjgyAipa/ArJBsnIJcOONNk42mIfCZy4LJ5OfxxysrzDecJziA2N4ZjWZ6pkffUqhNqDJb9XKZ4Nk5QxQXnOD63N6iVmBKbOM89vg2FT8fis+iSp9it8Exhf34tekaAr5b78tfjWpyepN4En6e9TODM8f/+/jcLvKlv6NN9+wauDzHZPXZFxQDPkLLKzKBsnK6pg35DUKjgyAlsf4xwRl+fE1MvRJWBjjdvuPJwc+kXvmpYXZIFlZcAXZSqHqw41c0fXb9N+W5X9FuP9Q9uNIn4GzxWXT+/AwT5s2/NnI0844rQyWH0SlCzVvyGvgE4qwDx9x2QiPn1uksQdjsFGTRr7v1n3hU8SH0bHRFfBA1fXXXw/3xn6wzPPnCoVG1nf8VaEzNJon4PBIDP6CDAq4Bls6oSeY4d19bsedfuK+njuXfDEGrYZsFtb17tPLjRgx0v3wB1uRX3CP4Qvyj58w0fXp09vBQaHr3Lmze/OtN90aTddgHxNgxsyZrtsGGzh4vyHVgEmbNG7ixk8Y7zp36gz5EOzcouoa16hhI+BADu2EA0QHrwkg1ZLUj3ExOu9jqyjnRhtuhGpJ4fr338797Oc/gwNyHMaQGNoTSMBVuZtuusk9+9yzJONsh4ED3SOPPaZyjuGkpLb5FSd2ojjDdobVCZogZotfFvXbeNoBof9Xlvx7/9/eDj59RZ1w5ZVXOjiAJ35Vrf/t8ePdxhttxN0dxnX/7fq7n9OYgyWC/Y/LHAq04+8WHHPPPoejAsaDdwO339499uijvAhx01CP9R/BPJYyI0pEojhD3LIff9OmTnMdOnag+HD/pNt1t92ID40KjVt++bku7F7vZs36EPLv6l4e8zK1oXmzZg7us3bb7zCQ5Gz9v4BxePvtd1D/w9lGN+mdya7p6quH9kObof/33XdfB2cj3ZiXxrg+W/ZhG86pXwMUiGx/WGPshFsx9WMrdJL2rST54Ueh69mzt/vk40+4c8J68tOf7kXLCPtzVV3/uaulw8MSEJEozpbP+sdxV/z4O2D/A9yoG0dB+rAggXvvvfdcw8awf4dyaxZVu88//8x99NHH7j8PPeiu/tfVsOw/Jfxjjz3qBsD+1YxW8lnWy3/8+LfdAQcc6F4a85I2c+eddnEXXTzcwXssl3t+7Zol3f/S0WXBYW+qMpJh7ZEpvpupd6/8pV5YGjgysd+BVsG3IuF1Iscd57+YPTseKRfEFNWWeNM9b/n8JZdeEn1s8sD/ct99KZfkxHynwyUQO+FZzNgebtvw8Jobi5P8rDOSYS3e8vjkMbeBlorJl5U5P7ZTaoxtd3B/wqkhrElqWJtziXiJJdQESVVGMqyBLxkrsYSaKKnKSIY18Hqz+OQ83l/F4xHemQWX+qoX5YOmGiMZtt5Jy4ASS6jBpSojGdbA6Wl3qSmOoex4y8r58SdjLk1jJMPa/EvESyyhJkiqMpJhBR7PIPJ7EEVfJ5VYQo1DqjKSYQ2c2Llz5viePXvqNqiqqkHBd+mNF8TCd3A2athY1/+LLpJXbjHus88+802aNqEzH/RQRS35TeT6sRJLqPFKVUYyrIEvGSuxhJooqcpIhjXwerPyKb50XanifYuJkqYxkmENfMlYiSXURElVRjKsgS8ZK7GEmiipykiGNfAlYyWWUBMlVRnJsB06dNB1LbtPr23/27hxYw8ns+KxhIkpTUhVRjKsYMvou+++6+UeSTn+ueCCgjdlFMRMVUYybFneeuslllDjKKr0DCL0Kk/Y71CSnQpUZCY9G+HpIQc3/rq/XXA+HL0vor2PDWH5Dbp1dQ/e/4CD13BYdeA53ptvvung832kw9a89fZ4t+GGGbzJf/HFF/OZQMAiHk1wr4GDx95Vrqmudg0bNowAwOgZROB54vwiES1QRb0xAnv0MUc7eBJK64f7Dx3cW0Cy9Cr9UkE3mJC8Pnase/6FF7SdiLvn3/92cKkKIQwSZ9bwnFLTzMjIRp1wQlMru6VziwyWAhVZSG+MyiqjLYka27o0M0sWuezyL4Jlf+ivf+2uu+46Wv7t1mvn4B4817Zt20wjlk9+G9XymeQgFlgLVORHeu+OPvoYdxmMOZnWb98OzmQNChA6b5VExfE37rWx7gUYczjh0MJQ98KYG7Q7+mUGWx35Fa84ZTRv1BRWCDllssigK1CRBfTTp09163foSOJ9997ndhuEZxCjg3BCEWh5ckxmBdYCFbmQno3777+/u/HGG0mNvffHU091Q4cO1Vw2hOV/+KMfuf/BckBd506d3Hvvvwcc9/+IESMcvIbIHXHY4W7kFZeDPjNRIBNNWWXqzJ+JCGL0VVuBimykN0ZlldFoUVOYQVMVWq2zQXJwY1RWmVz+wYMHwxmcizhNiIVnbV948UW3+eabgyb6aqoCFdlIb4zKKqPRoqYwg6YqtFpng1yS+tG9LByHLrAWqAhLemNUVhnNFTVLnx/uk3bdunWDJsi1D+dat27t4JOKtOo0gKwL4Qzi7Nmz6eoj18Xzbbfd1j3x5JPZLZyB2JYGdYGKLKQ3xsDOn/e169mrtxsPV3ZkOviQQ9w1//pXdBNDjpp4YitQxUDGqKwyS9f/dDVaDhfhCNKwejwpOqFoEF6ogoHBt9jDZR7YB8UzFlCM/komHmS8CXo0fDPW3h9p442AF1pzDD7D1mbddf264V94pm1JL3GFom+LFs1N02roPkixCx0GTxPJZPNnddYmvFDBIu0VzqRK/bBBCuYiNNwNAOp/wD2a1J7wlCN+BWBOuGdJvIRiMOGFhgQFxCIsL1DOHyXhIhUvoWgRXmhEZ7mIqKlZ5M+B1wjhp5CGDj07AFdMfvix4XfYcXvuYxp7LT2+aBYrKRt/UolUIBT1wgsVbJ5ahOUFuWzyy5iTMX1C4ZhL8+N9wYKHwxH68sSXcBYsO4mXULQLLzTrE2WLsLwglr5++ZIK1qJPMUt4bSkqlk9+jHzbbfaNDs6vA/c64Sti0pzF+fFb9Nj/sv7bh+u2+gF+Vg0+QPDYo0nrJZJQbEPxZBGWF/TS979EKqY2p+UFveLzz4cny3v23ELHPvY79j8+cDkHPsGanaTVQtEuvNCsT5QtwvKCWPH1S2amq2b+K6680iw/Ps548UX72hqpssZ//PHHnl5+Ha5EnnnmmWIEWv/6h8FHLPB+9R3hlXrVYadRtEQx+Bl/+lNy/NOlSxd4gjo/thYnv+R69913/U922snjJzDvlU+LmopSVrxQa3lB1V6/eUglOBOxgay+LIkkS+mD/3nQx4c14sGibgxhpWzZcm0/CS6zaONN/n32hZec4kKFf/bhGMjDrTk6QGw83JjKTg/98Gk7+wDCQrjEbPEY5yL6FrOtc8nrXwQ3+OPTcbyx5zbefkd4FUSsksq1WXbZZefYbqgPXyXBk20XaqyXh3dCjvJ77rGHf/jhRwK+dqLewChPLiyNGzvO/+MfF9LrADhSQClYmdoTBSu+kwruA4UD4GHmwNn5I+FTh2kkm8darB6DWlvdTZg1a5aHM7rwZGZ8zUUTuMTw8EMP+2nTp8M76eAf6HR4aGU60mmGB9v0GaBHivppMwiHePSL+GCnOIwhm2DIH/XTKaf4zYS2LVy4MBRh67Q1Wn1x/dUwpleDz23xuOfxr68fyXSRRgYGP8GH41/WBxpzBFAUeAdeVTXUX0ceeQQ9eKUPnmXylIkmjEQOULZ8MfsL6mPtv3r0/8svv6zrzvXX35D64zIp6X9Z/p/SQwq2Tm1lYf3Z2vDdrPTFJFhvZfsDZw6zMJI1MjDCn/fXv2r7cRm+/PIYwo57fRxt+3r26hnB6lUYvk6l5MQwytuWkdJaAq8qZerMVQRQb2CU/wbyv/XmW/TOPDv+se+POPwIaI1tWeBVpUxReXXq1BsY5b+B+jH5qpz/wAMP0HUGt1/NmzWPD8GWLAV4hoF88Atui1v/e+++B/v1huSP+eDewpIs3n/44SzfpEmTeEIMtrF/Pfc8u5QXO39cWDX+cHiwRY5/4P7k0nYUGXSZ13P5l1xihh6AtQU6Ik6gwD2J6Oz964w1HsICnb9gnjv1tNMdnCHDg1GOh3GAZakKTutv5saMGePg3USaD23t4aZt+D4u6dq0Xse99OoreMxHjnSzfTgWxCUBtzbSDfgERucG8F/j3JprreFatmqt7YYnilzDRg2T/MOHD9NL0+QPMwwhtZIO09aj/g8//JAvWcIShAaRKxwIuLbrrks8z9Lo+GANnh5Hyjmr4AGKOx3ePK1TQX74JUGX3GEn7bbbrp974onRaXhKg48ewLlMDYRMmt+afvazn7m777rbPTl6tOvX78fRVJAfS8SJo5mYwL435T3Xp1cf98WXs101PBiUTOB31BFHuhHmkmhi15hGu5j5seBrr7nWHX/Cce7LL78ygYAFmx1/XAFDuCQcZVhPnFCPayVhyRT4ADGLmzU5RQAiAVfJ36xZczd58iQHT9cZgPSpUdVS/ywYc+3WayvDjZxmfTjLrbsOjDlcLyAhtjZO3s37ep5rRWNuHqi51rvuusvB99EJhprEx+THB3rge83kB+/zcv0HDACs8RCWaHH+THTKCS+yd/C6Kcq8ovqf2+Fp/cdbTWSSEkTG8srW/2vhloVfHXKw9n+DqgZu2oxpbr111yvtf1v/qFGj4Eb2AygV9vlt8NAKPtCGt6U88MAD7gaw7//L/Urzc1u9u+CCvzt84IoWRQOIVAOWouUPOnxQCf2kfmKDhLoasNrlj+O1BmLmt7+YDre/4IEdhBMGXoz8//73PblbjTCEzY8xy/qfscZDWKLl4++qq65yh8Gle24wEJgw51Pw0GXfbfou9/yUsGQmJagZFMu6fo1dwKzs+Tt06OSmTftAW77rrju7++9/kGVpPNG4/OGrbXTJ+fPZn8EDrOFBMI2QMhJCtB+8P8V1hdvbFi6Y7zbdZFM3duzrrgEeY8DE2Ohx6SWXumOPPw4MqOMJnruI2/hk/XMO3nLg9thjj3B7A+NjtBAAFLL8jzrqKDdyJN5u4t3NN9/kfrHPvjBWjYewRGP9IRL5ZdauaAqchIAaeIITjcIGRUZOrYCuzS42oR7O2DzkW8BRfqgE8yf/18M3h+306aefYn8oHi8t22lx85MvNAfuQ0vyYjvwNTe5ePa6o00c+Bw+6N94440QHzepjm5SVXfpDqGhD++Cr8nY/mixdgs/r+BSh8YBBvPDga364ePycZIEQoNFRKEhP1qlnl133ZX6XL5DGWOmnOBTrUg19BLSww8/jD7jhl+wmTB+vL/kYniND49kf+SRRwJYG6L5JUJy3VeVkakrPyLPOmuI9g+OJTuebH/n+NDGuvBwDKjxczHoEDDay/LjrQQzZ8xcqvrjmON8668v7z+M/Us9JyJQOBhM2t4cbsXAlzrrVDL+8SEfvDUE68X68QGR/GQSWWNOLQoef3/4wx+4TSuw/2W57fXTvWxLoUGxbamBJTv+doPbaSQO0m226RtcMjFEFBrG/623pJenL/zH3+kF1DhmvrfB9wrPjNj80r5TTjnFtIO3P9KusvEn9oSu4P7Hl7nn6lmM/pf6I5UOFppZHKqu8b/4xS9Mn+GYrvLPv/DcYi3/mFc4SSC0PH/0yGIzsgA1VG12sQlVJ2ZUrcw31v9S1uIs/0mTJtEys9vf887jM3RpgbG+WTNn0vZ/wMABZrcT7fXJ/zi8q/S6666l1+zl8FII0AED+kP7Fm/9+/nePzcRgK1l/OOx0WUjL4NbpMJHEFJPdA4aoRlR1cqULv//BwAA//95So1LAAA5a0lEQVTtXQeAFUXS7iWICApIFpEoSYkiKJgz4Cmov56AimdARVBB5RTjGQ4FA4JiAnNWMGMAFRQQxVPEOz0VlgwqGcmw81dVd1VXz8zbXXbBcLyBna7wdVV3Tc9Mv5me7pwoL4pMjgm2CDgWRajOsZyWBxmASehiAmS/njHDHHfccebnn3+OZzcdO3Q0n0z+hOSIXbxokam1dy0yjN4j2K1atcbssXv5RF4UxNwlBKzfunWrKVWqVGBj2LBhpl+/fiJjLNndxvpPmjjJHH7k4bbcUOZOnTqbt956K1k+LjM469yls3ln3DuAQc/GXHX11ebOO+4gOr/4n3rqKWbMmLGEe+rpp03PHj2Ithlhbw9bGutlurIg7QJlefvtcWb8+PHm6KOPNvn5JyNuFzOTGv8H7r/fXHrppZSjd+/eZuSDD5qcRMYwa3H9T5482Vx11dVm6tQpurjmueeeM7uVKyf+cyBYHH8pEsQPzg9TAto/tr8IdojCsBKGZNYs8iWcnAB5EH4QQPOBzdrGfH7LMSVKljAN6zcwjZs09mKgxD/ShWh/kyZBmzv8cCkXtqe33ngr3+PfuXMXM27c2+J34NUDzeA7BhOfn/+ZX39tWrVsSWXcd9+G5vvvf0jkSRNom+yUZEqxYcMGg8dr7bp1VBfcFSb+y5YtM+eeey7luf6GG0zbA9saU4j44/HG9rdr2V3NgW3bmoqVKiWKXlD8f/31V1O5cmWzadMmif+QoUPMlf2vzDf+6Ijr/9rrr5luXbsBjxJjsA6PjR5tFixcYF54/gVz+umnk1yFini9o5x5eWYr/FFBtqH+iP892j/Hv1Tp8Hqs61lQ/DkGOk9asBJ6AKFs8UJ7n+H6Dxp0rbnl1tsohGhnR/vf0dc/rANumer/Z/Q/etQoc97550O/BI+Prd+n06aZ9u3aWSalwh9NnGiOPOIIc/vtt5trrrmGcBSTlMBoUVGO/1619oL+y2Ip30knnWwOaHsAtClt2R0TEJXdraw59ZRTTb369Xy5XE2K4j9hBAShZ2ucZCmKQAQFUBv0FoNN857Ozc2NOnToED3y8CMB2jIWJ3ufjdSTP/kkKl26NN5lsRzyV658OdB78Jo1a0TH2HHjxoX+PFzJxbO1F8Ns3bLF2lX+h913n8sfA6vy6LKJszgcFK++OtaXG+o3oP8AgQuR5zNiLEuUKCHxKFu2bPTTkp8c1OPi/vPARuU9K4uvBfMXBHlsTthrE1wA5Z9FNs2LOnfujN2gCDqIINKZNe1ypYg4j1XBXmFGjLif+ll43KGDGLomToETfFwHgBQRC60K9g7z8ssvR/Xq1Rf/B7Y7MPrll19iZYgb1LymXbYUETu0KtinYfKJf1ggnVnTof9XX32V2gEeN4ztgAEDnNt0/7mzZ0fQOZW2g21uyU9LwGjch+Ytfd+w+ySG5593flhc4ixO9toEo7dz/RcsWCD1f/PNN8JS7GD/M2bMkDhy/D/99NN84x/F6v/W22/L+Y/Hj+2cdtqpHDFIUyqSImKcVcE+DRPz753EwZrXtMuRImKHVgX7NMwfyP8ZZ5xhjx/cD048sUsEDxB8OILCp1QkRcQVtirYp2H+QPVXlQUyXljNa/r3Pf5nn3WWnHN4vuy+++7R5s2bg0LZ0sLeFXvL1i1wb34tWr1qFchS6kK543LNazpw5RibbN68yd7PoVxYNvybOPGjALMj/XOFbWlhn1LsbfGPv5AAr60grXgiLc+azz6fRhWvVqN6tG7tr6ryKp+Skjnlo88ll0B+ezPjzh/+GLA3bPYSRdWqVbc3I+rM5UTn9OqlS+Zo7VPTtgArV66Kli1dhpUkATYU9KX933vvvaq03j8JKZvNG9Ok+n//vffkYo9+7r13mA2nqr9yFl1z7TUUSy7TpZf2AbX1l5//r776ivxgvoYNGzqTKp92QgXPoENvqmydO3ciu+MnYAcRlbIjUluxdFJC+fQOIeBjxIgRUubevS8ShPZvHSqbRFqezEguVzQdq4COAcE/PLmO4OmSHP82rdtE6zesD+q/I/2rEgVkcev/HrY5aAe2DUGbG6bbM7iiwNkYouNrr8E258+/Pn2wzfEWizJls3lxf3LXrtK+4ak1SKzO5tY023MQ1caUhsji1t93EE301ptvxs0n6h8HFMf/W9Ah5RsBxn+XXXaJNm7aGLrAsORTf3jDIG2SbMH1rmq1qtBe4QcMhdTGlcwoy17KQithTlLKmEEHoOLU3xXQucrg4w/q/5+33y5tuWmTJtGqVasxGu5PV8nWK6ZxLd/qLFrTLj8mlDGDDtVB2yCwz0zZbN6YZqf1X3uf2vacg/MEz7kTTjjBxcvGyQdPiYMYh4jtGf+lS5dKm7LX45xo/rz5eJBDp4rbnv6VWU9Swymaf+og2pZmDdCeDHr7cWrF8mX2BgMH6M47h5A6yBIw8dxR9N7779MB5gDiRbFEyZwInxpq/wcddJBqCDlRhQoVonXr1iUNgiRw6RjsDHbs2DGqULGC5NnCTxDlhpoTDcNOnD7dAmOSNV+Cs3z55Zc2NmAfO7/wKjORj7GbN22KqlevIXXEJzlzqTFJcSTvZ9M+ix4cOTJ64IEHopHw17Mn/IoC+3ijr7137eh+kOHfgw8+GP3w/Y9cHcmvCfYvMhS4+nfq3IXKM/79CaIuDBHYDBifmzqIGBf4u7D3hV6h/AtJhIcURAUuAybMuXr16uioo4+mMmD7O/fcv7mqW4e0zyd/aM1zQZaA8RimEmoUFKP9ffUl/FhwccX0uWefZ3PsUlJ4FRpVq15d6l+27G7RvLnzUv2vX78+Gj16dPTASGxzI6ndVapUSTozg64bBO0R5SOj555/3tXAmaI6iduA2N71X7hgodT/TewgJhwE7pPqYsT/mWeehXi4zjbEvmXLltvsf9zb4+Smwh33F194MSx0AVxQ5YBJZkyoi1F/th7YDBhG+DSh/h38vwmd8pL45gaOXYU9KkT//f47KqAUhQhf5oKooE4Bk8yZUJMv2tlzyAFg6FO01157Rccee2zG85mtBzYDhhE+TahR4M5eIYnwefKjvvv2u6h1mzYRDNGI8JqRPMHC3MXxP2vWLLn+8P3vjsF3hC4TDormf/HixdG1114bwZCdqF/fftEEeqsW2mKOXeIT6F1Kl7HXI7o/m8QPRsZyXn/Q3VFIAODN5NhXo7N69oxOPvnkaMTw4dGSxfyW0VoJsgSMeBEioUZBhuNvSCdZPdCKlCkHZPyee+5JQahcuQp07PCXF2ystJzfgzxPKadMmUwXRNtBtB2G5i1aOLw30r37mXLh5xtg/yuv9HaBsmiXx2clzHXXX0f5+13aV/xTBxEPHPyx/6FDhyqb2gjSoW2txUyW9xh+mkHlBR+vvPIKgXT9OdczTz/l65eTE9lyaA9IW/6wQw+zWMBxuTkm8fSWW27BovkNTKT5j0sxQ+cu8AQRbnT+FbMrT5iIbSvOoGQUqNH//fgEETsyEJfeF+Er5rBUFu5sEYN0aFtrEWL5EENZ9Q7U2tPGTRuilq1aShxfeOEFhdYekA5tay1msnyIUcYsCWrtn3PFpQIWA2g3tO24ALFgwXzfjiC+1OYEYU2w/6fhqR9dWF37HzJEt33M5D188MGEwK49duntr1y5ctGG9Ru0V0+DSfZvhewjlIY65BDnsGFioU6r608dRNE6AvKGnpyxmNSiWYcc0o4PEwuF/YQPPghi1KlTJ9EJAXnz809PgOG85nPjxBNPdFkL9m+LlaFwXIAC/DPMps4WMUiHtrUWIZYPMZRV70CdX/01lC1aGdoNbTtOslg+xIiSCVBr/9gZxIcGeB3NgU4iPsH1m/aAdGhbazGP5UOMt+UoUGv/nCsutWhra86c3KikGgaCnTDcnCcLFX77+7cO0G5om/3jkzJst3/723lR2bK7yjmAnarEBpm2tf6Z/D8KP1jj979PP53q4QnnICiCf+yI1qxZA15fl4/+8pe/RKVLwbA4aC933XNP4MHGw0XFJfhGj89lTNf9urZY9R84cCDZa9u2bdRs//2p/vXr16c3rmn+gwIiA6Cixh+eICoXroJxB2ni9u3bSxBOO+00MJOGspYCDTCjHh1t80LwKJCQnn/BBVwUcf/wQw/BzcxeOOlkhptayZIlo3fffVcwmQh80oZj+8rDjWvxEhxfZbe8LVshwH78FfofNGiQjUJQUM6RKJZXpFA4FqJ8+fJSrycef9xF2IHRB/zhL626desKru2BB0ZbNm9JsWj9r1q5Mpo168foxx9/jL7//nvJhzd7HPM0C+Soy83NVeMxrLmgWs6/d2S1tIddFxiDiDEZP94/QbQIn2NbKc6PTxDtyZ2jxiBaLe0ZGHOQQRxDZWaD/MjA3/Tp06ktYV0bNGgAv/I2ZTzQQf7MbjJqgvzOvwdbLe0DYBzh+TiFbW531eYef+zxAMJmsc3Vq4Ntzp5TOA5zyxY7dieT/9w5c6IffpxF7atv30ul3XXv3t22Odcml8ENI9PG/kmPTELgRIHcW8sgFgD+KOObRloHMciPTEJQdP94vmEbYv84hje+JdzFBDxEgO3cdtttgYkAHmgKxwT5kUkIil7/wpQg4S4h+O38r4YhR00aN5V2fNvtNtZUpKBcvmYZxB5QABXkRyYhSNZ/7ty5URkYroD3v2b77QeAIFMBHkN1kLOQ/rUFnf+iiy6K8McgtlX8gw+8gvaf1kHU+anuCUGy/pn8nxUbf1geOnB+/KHO5emEu4Qg9L8KxinWr98A3sztDde+H6nILVs0j/BbRXyiW9B22qmnSXzwuvAlDAeTDX0X4F+wQIy4/36ydc3f/04Zx4wZI7axf1SYLeEuIQjrr23aV8woCTJpCOqcEhKG9ejRUwqKDeW6666PZbIs4zEn0/gLmRsYphjEl196OZF/48aN0T613XgDwHAeHOczevRjUCy26LPiK8SrBl4t2L/DeCsuCaOrVKkierT5f9TB9TaQCj5gYD9ggG2E6JDreko3sX/3PXc7pa8/CvApH9dn1zJloq9nfB0a0VzMP40/dDd5P/5QZ/C0L2/o3yMc5YB4g8Ny2SeIrHNKSLy9hIVUgcfnRcPvd08QwX7iIxUPTNqJ1T8JyCzxZpP1v+rKq6iu2P5GPToqHyPOCiTeXma41nh80r/G5Wu4EPXv1u0UaU933+t/5Wr//7jVt7ky2Oa+Vm3OA4NiEeP8dz0Zxh9CrPDv6aefSeJSJN7sjqv/fPpIxXZ64x3EHe0fr0H2iYH1vz/8wtdbQf7xx92e8GqO44rpTTffrE1Ao3NWIPH2QkgmzuN3XPwz+Ub5H8n/VigNPg3iWJ/+f6f7ovuCehlTv1P8P/zww+ipJ5+Ecf5rbUmgjPkVk4urU4/fPsf/ARjmBDMGRAMH/j3Cc20tlM3eT237j3cQt7f/vaU/YP0df9zxuroJuij+b7rpJmojfA/EoWAVK1YkWclSpQrskL4/3g6h43b2GP1g3/b4L1+xIqoEfg8/7DDb14HK3DlkiGu/OdGNN96YqG9cUJT6axspr5idmk4Kb15nQvoGKBwHgNPB/xwMTyTgKRhm479YRpi+wb7icjcazHvmmd1jKMxvDeCTQMTwL3RNN4GBxXgwH4endIjrC6+S+UAirsPBHf3JpTy0aNk8KHu5cuWjefNwHBa4hTEE/fr2jUrBk8qZM9UNVOUnXIzX7OhR/IQ0h04mrUMaX7HTl9xQxhLgB38VJLZ84j8MPqrB+uHf+eenfEnKscc0dXMKSOIQ+xUzdBBhnGhS643F83mNy4aAGEjGIMIvMeoggj4G8WbyqT+CMuZjJQIygqxiLTz6Lw9fwOETtXbt2mFOv/0G/rF8mYuImozahAbHCnKbOLfXuTaryj51yhRpcyVLlbBtDvQK4uuOVLz+wPOwEjwX5y+AgdeZNjTKf6kY5xUSRyVRcf8xhM6nh3VQBxGV/BfLZ1mXGxJHJVHb4P8eeO3EsYcpwaJvZn5ToH8cq4QfSeANh5/o0qt/iO0lF18M+W0FYBqdCN/QDIUbg94ylhtBNmt+lbOmAJfRzjbUX5eL6D+o/+uus0OOMM44VhTP/52p/v44uVpDsj3qrx+4wPQuO6z9zZw5k84z3ReIP20vbvvDWU4qw/C5g+H7B47Oa6+9Jv2PNjDWEreMcUPd1ryoRfMWcl43aNAw2gQPu/yWjD9eD4KP2+D8u/vuu6i++o0p+uf6v/76696kptA8/2m50En/omLCnf/yipnkLh9jMA1F3vCTT6nxc66zghfJFjCW8OOPJwbmMBc+tr3iiv4RzEFoA+deHe/bqGGET/2CDJaj/foNG6KDDz6YAoX29YBwvijHU3wUjOVYvmJ5qtneF14kr675olyrVi0YBHpWtB88AUB77dq1jzbB14iZ6p9q2JV7+fKlUdWqVclOzRo17OtLp/vuu++ivWvBU1FX/4cfUY+JQ2cpLixAP8l55pm0JzkWx+a+/+GHCKd5eQme0r740kvRSy8CTTzQL78IckhJ/lLUqnVrKvcNN9wIeV4iPOaxfy/Sk96XXnT8iy/Sr8hwaggsduify4HT3NhjBa+Y4VWF3Vgr2Zw8ofUAzsJpkAMZq2A1pwJTgh49u7syGXhlOksgTCio2JVGESo5i+BYzakAAoFiFMnYUOQ4FnIKYJgL0Le5mtWh7W6SYn6LbQ5el3BH5OGHHmHzkCojimQAi+xTa3v+7dtwX6tmJYMltQpWcxpTO1ZpFcnYUOQ4Fro00UHchuNf2Prb8qT7x04cdjj4OtQFxvHi249YMckEvg578omnov2b2x+pVatVicaOHRudcop/AoxjjXiDORHJbt9+/UCU7p+xPrW4NP+EYUWcCeTWWihyHAs59Y4dZRWs5lRggUAximRsKHIcCzllsKRWwWpM8fqXk2OHFlWpXDXCoRN2YxRwinTKmMgBGMcpgyW1ClZzGlM7VmkVydhQ5DgWcspgSa2C1ZzG1I5VWkUyNhQ5joUuDTqINAbRKmIwNhmLM6NArUgGb4GOE368OmXqVPjgtEPi/n/hhRdG+Doe5lDlLGKIzXEqgECgGCDnzZ8P7SQnevIpnKHBFkm/8bz3HpghgrNwKoaZyKNhYPjRDnfmYP5fePLohpCpfFvztkR4D8e3EA2hI6m3Cy44P2q477726SEoPp/+udQf+xebNsKwqNTNOmA3nAo0EChGkYz1TxBZySkjUlKEwMTD9CQwU4et0p6VokMOPSSCSV6hs3VgMG6BL6THHHM0jW8iF+yXU+V344aNUY8ePeQCzPmxc5fm/+hjjoFxh3qwbGj066/93GV80ySbYA/TOnXqRHNy+QKiCuJIay20qVGoee/992SuOfzYZtq0adH9MJ4Av8RGHzhOcdSoUdLWhMhsllzgK61K7gMhrP+iBYu0a4uJSZo182NuJHZQBkvbR/VEu/ozxjbu9I8SGI/xfzb2pXayClYiTxDBN79iFiwTnMbqoFkLyQxMauISz7/+xpvSrvBrXTkO2mGMtrm9jZg6xUQc63mhmOA0blTxFpIEUpujLzNN1L1H92jaZ9zm9gjanK6kWGGCU+UPSZwKitsFjRdOqSVnSZqISzwvFBOcsrGU1EI80L5itu0ZnyB6DWeOSzwvFBOcctaU1EJC4Hy4sdSW118mOujgg6IxY8fQuOD//vc7+nAIbxKMwTcI5533t2jJkp/Jw7RPp0Wld7ED4THOOI4UJsuHJ4ylaXzp7NmzpSRp/kUJRFgy1MQlnheKCU61wRhtIZmBSU1c4nmhmOA05lOzFpIZGNfg9Z7HzeEDCvz4ijfBMsEpA1JSC8kMTGriEs8LxQSnKX5ZZCGZgUlNXOJ5oZjglJ2lpBbigfEOotdw5rjE80Ix4VJ8OlZhD7xuFXz/4esSfnOA51XXbt3YsUvZOIs9LxQTkOKPO97mwwwJ+DYRfeDQtl9grLWFcgZG+pQ1EydNjGrAAyIuH76lwtkJ8M3k+/CGbvDgf0b77effZl52+WXBqYpvM6VTCebxnsm2+ve/wjuMUezfi+MSzwvFBKcusx+DKNYYgamiFYlQHJRug1YmGguTQ+NJd0X//lGjRvtKJbgy8bROnX3cmEM2Ks5DnzH/+Nl/2wMOpI4X98ypg+c6Nvgr/p13YpNpa9PKOo45K10an2bCjcXlx18OJ/3lxOinn/AT8vzrj2bD0jPHaRTdNfQuea2nY3DkkUdEs2fNTlhAm94q2mFbkDryqy+hcwvlxfrjrwu/KawXEvXss8/CtDg9qZPdHTraPXv2iHp0hz/oRGDHuwfymMJf2V3tJ/pHH32U1yOO8IDpDnYAD6u2QCekR3QBfFz0088cL3TH5YgVAlh+gohPeHtf2DsDlvNjqmhFsmUWWZ45ThkVpqIlIo8uBvhjBo+PnQ+QEZgqWpFskUWWZ45TRoWpaIkQToFYhqmiFclgFlnecnfdNTS1zR1xBLS52bli0RKhBW3H+mZ9XpT21Jq1yXxWkraXPEQIp6Asw1TRimQwi2DFEbnm8ETZjImnnGdb66+LwjbFFgnyopXwIRleuHn4iD7nma5Tty5h9NRCbA87heV2Kyt1wTz4pOCDD6FDw844hUyKVFwoZducipYI4Vgds8N6SBXJYBZZnjlOGRWmoiVCOAViGaaKViSDWWR55ji1Unyyjl98cvxlUQSChdikHdZDqsht8c9YLAcOBxoK5ydtZI+NWhG+nh0E8+LiMB/8IGz8eBzmg1vx/Vs7vhq2PqF/i2EZpopWZNxWlap+TP/ixckHFozHlM0U5P+hhx6kj0Lwo9Rd4Z6EUxFVq1aNpnSDFUeiuvAQpyZ8MIKzqOy+x+5RmTK70EepeG+5BOZZzrQV1r8taV7wrQA+7PIVCEhVM/FARVi+fDndI2G1JWmDWEZuj/iDBafR+eijj1yROT+mnsbhEHtQh9n2V779z39EazN6rDOUmjCqoPhz/XMQaL93gC5HPhvWKI7o0+cSA6tTmCuvHBBo4Yta89GkiQZW9zAwaNXAZNqm/r77mub77W+aN29hGtSvb0qUKmntkeE062FhNAKCbj744EOTmzvL7LFHBdO0aRPTrOl+BhpqkAkiBG9ysdS0qJMvPxjDHhZMj2E+nfKpmTd/jqlRo5Y5EJboatSoUWCDGe2fZWjXRoVTr0EK/c+ZM8d8+MEEM3fBAtO0cRNz2GGHm71q1iT/FE/Kmp5fW2MELgt4+eWXgyrHXHDBeebhhx9BT8RrPNIF1T/Nf5cTu5i338Kl9t6npfbYZgYPoLbxTbaOpH+71F5fLJm5sPdF5qEHR7qip1tn35imI1jKqc6R9E/1dcbw+HP9x73zlpk2bbrp2vVk06pVq9CI4zJ4AG3h65/Jf1HPPx+VsHRzcnPNhA8/MNAJgXOjqTn8sENNjb1q2fqm1L8g/9iOKlepYlbAeYfbwoULDXzNBxT75ZTUsitK+5PMMSKDB0DlQHkWmL33rg1kjoGJqw0uI4jbb+Xfx4HcmrWw/N7Mf39jZn49E64xC8yelSqaajVrmDat2pjGjWFZRaiMbn86/jC208AcpGbevLkGPngxRx11lIG5JyXS1gPvOSqcstymv1f9uRS/t38YDw9LnXYyMH8dxRvG5hoYq5tv/Lns8TRDhAFWuPP/+htvNLf+4xZa9hOXUY0f/9mz55hDDulofoV75RGHH2ngQYeBp0fm7rvvMldcccUf+vhXhfvu0qXL6PxbAkvkVq9Rg8L3ex//4vqHy55p0KA+9DNyqT4wFpCWCvZtg1sFp16DVNx/7uzZZvr0Lwx07kwlWJ4Tbbdre6CBYSaAlrtDaMRxjz3+uPkbLCeKGwy5M1Om4NKx7JdTUssu7l88ADze/jL5zwEjGAdfPGGEEIeZCEaiIeyPcSp4BoggJAK1MEKE4BSOkeyXU4EyQAQhEaiFESIEp3CMZL+cCpQBIgiJQC2MEAG4W7duBpZWI9mzzzxjzuzeXZrJli155sEHH4COTje4YcI61rylm2Kt5EdBF7dGL3yJBR3EYwSTH8Hmud6cSh4HwA5iH7cW80VuLWbEcH7CCyOEmMlEMJL9cip4BoggJAK1MEKE4BSOkeyXU4EyQAQhEaiFESIEp3CMZL+cCpQBIgiJQC2MELSGekvsOMO5DeMPYf3l7wMDn03/3MzNnWNOO+3/fpfzf8GihaZ2rb2hTDkGniBSB5F+F3IpfVVYEqSBWhghAmwaw0iOO6eCZYAIQiJQCyNECE7hGMl+MZ0960czCjpD8KW6adm8pTn/wvPhx3w9yT171izzNFw/YEy0WbFypWkEP+A7HNzBwNJzdJxjZ6XkSyPQ/69r1pgvvviSfmz/umYtrF+OFmCHe7gbRTCSxXLGwFMh07FDBwPjvckclz9kAimpMu0YqeuPx79///4GPiACvzmmXft2ZhKsx7tLmTIJM5x/e/tnRyuWr4R1dusaWObNfPGvL0zr1m1YRemq1atNm9ataT3vD+HBR0NY47xlyxZw7GbSDzH8QRbf8Lh2PflkWLd8vY0tVALXijc5sAg3pLr9S/wRgwcBNj4WSMfrXwIO3gmdTjDw9S2qC9yqVKtqlv2yFHA5ZtHihaZG9ZqB/9BB0lzcPxWuoEzKDOePH3+BMEAEIRGohYngIckEA5OUU3Hq1qtnZkEHD+OGP/rgwxUDH5MZmEdTSrq9/bsTkQp7yCGHmMlTJtPBeuyxx0yvXr1IDt8VmLrQtg48oK30u7gcBMCd1EkkARGohXEEdRDVzj6ClAeRpAlk9HWLylAg6W0RBTsvSWa2uhARyHZy/1Vpih662kYLFy0MAnjXUPsJ/DvBmtU+lkTBzkuC7MR04mluJsTH6bhcxYj/cJ4oG5osj0GMl8B6CUsYyIrhn+zALrQeliDw5VSBbCf0P9x9XAQXx+iC2Ffz+FoVP4Bpf1D7MJDC+WgTBTsvEZAQVhciAllK/HFKKrhy472PxvaIMSK8LaJg5yUhEjmrCxGBLMV/0oqWeFtEwc5LNM7SVhciAlkh/OOcqDibQ916daPGjRvhlZ7GPn8K46DxC8vLr7ic5gCtASvqnHTSSbAG8Yn2tTgOsYGVGjZu1AP+ubyuTDH/S2COWZybbrdyu1H80RceB0zxmFDKvEpxnHfaFtTVAQJZzH+aDZQ9CdPDsP+aNWtG0MmycQdjriapWQNfDhHICumfjeM8ozh5OsahUePG5DzuX6ZVgWsu6nA934oVcdhLTlQKhkFtoo8bXC7nfzLMSqDXU+f2X9j4Bzg+Lu7DSdQdfvgRXAUXr9C/KIGgMYju/ItPc6OjTRZg5yxpE0JbXYgIZNsYf+2N7MAutC6uidC+/vpXWKiD2nBOdOttt1og+L/ooovpuKxb56YfCk3EOO+NKNh5SQwKrNWFiP/AJOl8vHBc5tq16ygjDq3BV/DXyFR+SXtsETVkFXah9TCP1XkE9Dr15hXeipIBVHN8rEimFdok0fkqFVrhhBQiYWln848XOWwo+NewYQM7EwZEBSP072/+TZOWNmvWzE41pKIaHrVAEWPyaPwL2h///nin237xHwHzINqbB37FjGMQ45vyJaQQBNbcznb8MQC/R/1xnCm3O5y9gDeM/9lnnw06+FAJlpzLvOlSZ0YFtZMsQlBGzenjj2Nkjz3uWBpEnvSgcyW1XqJwQgqRr//gwHiDjgptJNQiUDghhSCU5nT9tX9cjgvHLv605Kdo+fIVcuy6dutKy3Xh17x4w8N1yHm78847pWNH87+JIyES/j/88CNYbaImHX9qH6kdwvAjOD7/Tz8DxnMlNuVLSCES/jPV//PPP4dxa3YC5zJldqUPKhOuUgXKl5BCFNq/Nt2nj59c/sabbtQqonFaOJw+Cmfq4PaP06rw+damTesgjy7Neli5CH+grYDJv1euWBmtXAV/wId/oFu5wspAjwsurEQ8YmP4VQ6HM4749qQ9KjGW1qkqV7EzdmBnalHaSireWFCXJKN8CSkEwTXH/kmmFQnD+SoVWuGAxOPCP3Zyc3MJt/rXNTQWsHPnTlJ/yqWyKoOOzFep4AonZF503333SXs4+5xzBH/zzf8gOf7wyz/EYkzyphMK58hYBzH0o+Ap9qw2f4zPFkcTn5JZizTtLTFltfljGMv18miiPCtALdK0AISw2vwxAnbHz6OJ8qwAtUjTCMCPZ/DCgY0WPyLBDTE4x9IBbQ+gZaOmTplK8vjO2vIWifKswOkJIpzoeJNIUQsuGVGlSiHR1g03XC8nHH1pluJAizSdNGm1+WN8rjia+JTMWqRpb4kpq80fw9hktChfSmYt0rS3xJTV5o9hbPH848c73AH4+OOPndE8+jIX5bj6TkFbvLTEpxReizSdtG+1+WN8rjia+JTMWqRpb4kpq80fw9jixd9b0VS6f7yR4decMG6NwDiRMd/k+NoxHNZypdyq8FNhGhE6xnA8B1w5gPIqtXZMNC4AgE8vMA/6ww/XnoCndhM/mkjTduAXm2yvFnxM8NWMGdGMGV/BggAzaFqSuH92oH1qmvU+tdo4ZsniJW5KJ/tDGmeKwC2OJj6eWXCUpVjXP5z66By4mXPMMf322/9Yw+wH/OPX7zklcqKn3A8vLNKJ8KEkxw7n2EzfbOFTqpAKj6OJT8msRZpOGrVa3PMTRCwzzYOYBP/m8Y8XwZfWaoi3wgDKIpxah49B3br1BHMxzFGK59MUmMUFN8YLIANhcR5NlGcllxYxPWDAlbYscF/GOZ9xw1XVcCaU4wqYKJwNW1ts0ZXbswwL6oNq6SCmYF0mngFcIYQUQhxYIpMctazjtKAcWf82Unbf5oA20Fhyoirw9RY2ko8/nhS1aXMAvSLycyKGsbUR5j3rOA3jLxNly8LkRY//jTfeFMEHNfQV1wkndKJpAvCkg/Ex1OAPhfWlzzvvvOiyyy6P+g8YAPNd/cqFVGnR/SsjiuR6c2pVIafg0F6tTiGEFEJnADqTHGGs49RmDTkrY43VKYSQQugMQGeSI4x1nNqsIWdlrHnt9TfkYnkNfGWJX+Dedutt0OZKRYfCVFYr4OlFuGW2VhT/1pqyKaQQoXupY0xMLOfh1GJCTuf7cx3/2267nY7Vv778F1UCJ+Xn12R47l0P69On1fgdWL4UryuIOfOvf1UBSNZ/8ieTo5IlbOcQ1+GdkvhRmhetW78ugg8SbbuB8/2rr2bE/IYRDznlHo6l1SmEkEJQBpyepGPHQ8TnpbBwQnLjPJxaRMjpXIX3z7m++GJ61KRpE4knxr9ly1ZOzZ44xWlV/JylOKennlZl6dJfCl1/9u/PMS/xFPvl1GpCzqPRltUphJCWqMJPEKHtLIYO+m/tX5e2oNr4skklKEvIWSu4KhKeD02b7Qcd+XnR1VfBCm1wLK+9ZpBzmZYLVZnkWhdiQs6ZpyQvevmVMbZNQ1lGjR4VfTzp46hB/Qaw7F9N+LE1R4MdndmaL1uICTlvEjqIMZWwQnh0jAoR3JDSyghIB+bHwt5UaIVxksEDE1SYc+fwj08IWrvJrLHx4l/dunVh4fR3fegwUkFwgHF8QfHv3MkttTeBp1hIhF0EgQtwEPDA4OtufNVTscIeUVW4iNSCsWq1a9eJ6sB6wLVq7RVVq14NxtpUgMXey9KvIXw14o0E1sSnJkJE0r/HAtKBC6o/4ySDN5Kgdib/uDTk7rTqjG1z+PTonF69onXr7HgYjFcQjziTjT+1nx3d/s4773yYWw3X7rXN9Z+DB8sTxNawCsPmzVtj7dgChwy5U25Cf3frvsaAxOKExLiCFV97Hn30UQdLHn8eW4dPXB560C4IsCPrfwFMmsyd3CNgDJ1foxfq+Bu0P5g5AMYbdqaJljk+mGL9cZUx3Aqq/y3/uMXGFjoiNK2Ki25a4qrkVMn4+zw7tv70BBHqiHW1HUTwHBRux/q39dz+9cfFAerVqydtHa95+CCDt6CKUOGAjzOOL+j4eyPKAGTCtzg4DyO3qwYNGkRfw8oyftsx/uUJYuyIqurGHPsSxbOIRlWNZMzbVO8lCxCMsjLv1VMaTXSYRdRxMfM21XvJAgSjrMx79ZRGEx1mEXVczLxN9V6yAMEoK/NePaXROB7xjddej6ZPnx5MpomY0JLntec4hlH4BBEbIa4nabd0/6RLGkkVM6ww/p1TqIPPxRTrJM2giIuZt6neiyUgGGVlWf8cDx8JvOF+MvmTCJd+WrQI5jtjiA5jIpIepiOfzBpKvFdPxdx4wzFFaMnDdgb/uKrRJjhOvHWCJ/fcSbHjR3UUGBVFxx57jNx8XnnllYzn3y1qPe8eaUukgkmOPy4MwB22IXfe4eTp/n0uWyZ/1D3lS+sodgTsSFgjmF+l7wMfwOCHS7wxTHtmGWO21T92lP8LHw/gHLN9+/aD+X8biX++idvUPpWFqacKrD8ugqA7JO+++x4Ur3D19/WI18Tz27P+5M8FkZ8gYvzxI5V4bJnfUf513ZFmfyxnvqj+v/5mJqwY9hYNB2CblLLhQLj9/bMbfO09DuZ5hiluaKWsREVdORjPxWLepnrPCEwZZWXc6uw0N3ga09mFT1CBwA0vFwFpBbRXOgISTwYkD9lAI3jaODtWltzzZ9nBbIXKhyXVXumy/iEYFI/tE/8Tu5xoxo1727z/3nhz9DFH08FSkbeusvFXbXr7xj97/rmLhWpj2faHzU1FQcUmv+vf1q1bTKWKe5o1MLdeCbjAQ6fJwMD7xAV41ao1pnr1aga+XqYpaJYuXWoqVqgobVx5Nu0POsh8Nu0z0EUGXjWbDh0Oznj96devrxk+fARgc8wTMI8bfNCU8I2C4l7/4ZUbXKuOgXkDN5P9g2G6nlatWqJl+A/tiebcwXubLSqB1M76xwjnAQb+4aUUZovBdNPmTTSVzIZ1ayldDdP5zJszzyz+aRFgMDJpW+jpIJi3DtZCTwOSjOuPU4sdd+xx5LdunbpmNkyrggysFGTeeO1Vc/HFfagu2OVcsGiBuQjmkl0Lx9Y2DSw0mEPXtIMK4KbqbwXJfaL+EK/OJ3QyV151FYGtWbUXP6iODLwdMkuXwTyIsOG8x7B6CNFUoOz93x0TF5KUhI//H7L/o/uQAR12KGM9TNe/TGDQAvc9dRYFJFLxmCVtS0C0IOs/cxiLF3+77mRO9OGED2JHJRt/H5Bs+9tR7U9irJsbCbUgG//CxH/659PxVk5/MAG8DW1KRp4SBrsYMO+bwsnRACIvWr9+vawSUw2myMnbEn9djXh//WnBYxDBLi41SluKf6uI7fXh9hkdyB//eQvm01AV6BNRPV03CbslUneOQRwjcsRCfp/HPvWDO3vShrJLePTLf6BjG5yij2HD7vWVy6f+OPbTlikHxvi6aVUgJ65bX6pUSZjehKdVyYtehS+dC+tf6hmLkchT6r8fDA8KN31AfPwRQyupONtLYCUVQSYJbB6wiQKZ9C0B0YLQf2jAtz/vRuUlUvFhZs8lIFqw8/inJ4jQUFxbsUcZGh5t2FqJFsIp6NxzKNJZAO5x4/z2XLIcm+DUIvXe2+D8ghWC8UpApOVxjxvnz/r3cWKKUxspvbcanLH9qSeeMC+8+CKsTFM1e/wxRImgKQGRlsc9btn2Z+OgA8cR45QRPvUx5PgJVghGKwGRlsc9bpx/Z/d/D6zC0X/AlRSPy2A1jnvuvjvZlCFexx9/PLwxeI96N6NGjZYVG8a8OtbUqrGXad++PQV16rRPTceDDiYbsNa3eebpZ1yIk/H//ofvTZNGjQkLy6KZWXNyTQkoiUXSYYrtvA0+foIVgrN4QZ9L+hhYQ53qiFK9oR1GxnVUIez/YTcLULR3GYQGDU0yTVaQQd7aBC7w6bKiWDaU4UTKC2F1nOo19xI8ypNbZPaEJ3Er4Ekc6mfD6h2wLKNZ9+tamCy7pukIEyW//fbbLputFazpCxOUr7WFglxcR44ypvhMFKdyts9GfTyo9EH9AUOPTo0plVPC1G/YgFZPorJad6rISgAkrgSyDFZSQSlMc2Nq6ieIVBvvV+VU9pC0Gq0XWgjOogREWh73uPn4ehxTnFqk3luN1gstBOOVgEjL4x63/yn/1GXmSql6U0352ScwohKCEH4Xl6fyLHRpmCgnzmzWP7Q229w4cv5A+NATJQCOHaS+pbrYMigMPEsTtrPxz8Y/2/7C00tOFneecRKXp/IsdGmYbPfrH0x6bd5443Uq4dgxr5qu3U4CGi8K3jG+qtxnnzr0unS3smXNkp+WGPgYiV5Hw/Q0pm+/fuauu+6iHLiE6r6w4gpuAwcONIMHDyaadlw1J+l1Ti8D094AFxl4QmnO6nkWuGaQ94/FYaknnJFCXH9mzJhhxo4da/K2QiePbLFtSKntIg8bdgRxlZFY/aEvZPBNMQ3tIH+EtrtC+Bc02E/zXw1WGbkUV4+iYtEOsrhUJbDWLsS9PJmrW7euXd4N/F/Sp4+B8ZVmytSp5mB4vc9ZxS8TbDpfnkHKcTHjDx+pGVhn2GzYsJEi+9WMr0yLFi2S5SSX298/VzcRF3bFgKx/aOQcFJeGScoxg3MKO4gUQ3UycEwxjZnUKqEZ49GiEoIwHujkSpD1DwcQztbYxhHiNKYm1us8FceRJqFWgmz8s/HPtr/4afOnvf7B57KmEow3hEmP4SlWjvn5519MlT0rY09IbZG5774R5rLL+pEMVkShzhwydw4ZYgZefbWZOGmSOezQQyUO+DRw7rz5pnv3Mw1Mq0X5/FXEUrhOLObZCmU491y7/jFpPJDyBfeL7PXHNIeO1b+/+cY0bdbMwLRDZsTw4QYmMDfXDrrW3HrrbeGhcxHExIfVU0pN5PaKP46lfHnMGLNxwwazZvUaAx+t2bGSziF2iI888ihTGdrervCDowMsqXjqqafaMiaKpwTZ4/+HvP+or5j963f/7t7J9Ot3BUsbS5ARqvMBSI0U0BpLx43EecmRVCQlAvYEgLL+84lUXBXnJZJJRVIiYE8AKBv/fCIVV8V5iWRSkZQI2BMAysY/n0jFVXFeIplUJCUC9gSAdnT8cXYD6FHgHRjmI2zufSOl/A8aNIgwiH3ppZcIN3/e/KhipYqw3NrhxCOet94X9iZ8pUp7RrjMXnz7DFYxwRUoyG+L5mrcnEIq/0rqSeWPhHFekElFUiJgTwBoR8ffO0uhMvi306rUl+OB06oMwGlVMlYqqUhKCu9fkHEjin/+uedhPGQpmJZsdzjOlaIaNWtE+9TeB6Yuq0Np9Ro1IniiSNOWld6ldITtK7GBvT9i/KWcqr4ki/MZgfkcKskDxJ+o/v4JIv4CgKZJT+KRxi1Dr94qUQ9/7hepJZUAQcxSijsUwaN4J2c1Kawy6x/iKT/ys/FP/VWl2wsHy7alWItillLcZdtf9vzbOa4/Q4YONVfDV6h4LenX7zJz77B7Uts/rNtuYGorvCrTq8yWrVuZc3v1MitWrDBTPvkExqI1pHy8Wwtf83Y9uauZMH68ad26jRk+YrjZf//m5vPpn5s3Xn/NjHxgpNmSt9X0vbSvgcnUTbny5dx9IHv+YQwLc/7hU8S5c+eaVvBEsVbt2hz6ZMrXN7KL9w0lQDSzlOKucP6z9x8KFQQLYpbyVsVpfXwprv+b8bcdRG5IUvOg7lJ9UqdgVbZtI9kWpyp3KFKcIhW8aCTb4lRZCUWKU6SCF41kW5wqK6FIcYpU8KKRbItTZSUUKU6RCl40km1xqqyEIsUpUsGLRrItTpWVUKQ4RSp40Ui2xamyEooUp0gFLxrJtjhVVkKR4hSp4EUj2RanykooUpwiFbxoJNviVFkJRYpTpIIXjWRbnCoroUhxilTwBPnoI4+YCy7sbeDrV3gNONm0b9cugeEOxGX9Ljf3jxxhtm7ZShgcA/cKvEZs07q1y6OcArlx00bodPaD8Y1v0LQmbLhSxYo0DQ5MkG0/bGFFppTNcqpwoUhxilTwopFsi1NlJRQpTpEKXjSSbXGqrIQixSlSwYtGsi1OlZVQpDhFKnjRSLbFqbISihSnSAUvGsm2OFVWQpHiFKngRSPZFqfKSihSnCIVvGgk2+JUWWFR+ARRAKwWQbzH6BUEVXghheDrkKSY2Wu9KU+laFNEhCe5UgophPjykqx/HQsfd6ZStCmibPwhAhQXFRwhhci2PwgTPpXwEQlpakfBTiOdIkVEGpIrpZBCiF8v+d/3nwdzIL73/ngDKy6YhvBhSUHxXw1jFfFDiAp77GFgXXezyy5lgiMiQQylZtaPs823335jGjVuQh+w4JNIcqYycNw5RROajplM12bKQHKlFFII8eUlWf86Ftn4xyOQEp0UEeUiuVIKKcSfuv1BBxFfsMNpjVcQ2Hy1LK9lWsc0px4dpzRC04zD9aCz/rPxt+0hvYVk7mCk4bllJS2mobPtL3v+Za8/2etP8mrB1xG+anCKcqY5ZWwy1QhNMzJ7/clef/641x/1BNE1Xkp0Q9ZybNRax4288KnkBiIY78h2CSAo709EQhTKKX6G/86775gvpv/LLFmy2KyEX8p7wTxNdevWMy1gtv1jYQZ+uzm7lGgfWo5IrXNZtyGR3ED8FvWPFy3r3z/gyMbfxYIaiWsZlEgrAY2WI1DrKOM27SQ3ENn4Z+Pvnkv4dkUNRFpJTI5NTeuQ37ZNcgORbX/Z9pdtf3z+uDODEjlL1DQ3jHOph3iBPqH0+E2LVTkc+c3Mb0zrNq3glIYesrYPX6nYCUhRiJrIPA4TNPfo0UNQypqVgWBb/G/astkMvv2f5o47B5t169aLXSLAJX4ogz6aNdsPphC4xXTr1i3AFNe/qxY5StS/EBe5rH998YJDg8cLj5s7SoVpfzbM8AsdcnE+mz0R3eDYI5NAZP1n459tf3IeZc8/uBa5i4q9VqgrBpOUZq8/2evvn/f+I08QE81YXwESt0+8gSYPu4fZM2TevLmw/uY5NE/SgvnzSY03ebr7ejBRTzz5hDn7rLO9tBj+N8Eg6uOPO8F8NPEjsYduy8C4mquvGUid05v/cbPoSsBs988+96w54/QzRFbQF0yFqX+imxFcONAVC1LiWYz6e7vePlWMWU6z/iEs9iqfOJ7Z+Ps7IDWecJeIV6DmBsapUzLLabb9QWCy7Q9bR6I9Zc+/7PnHPXB3+dBJor1opVxX5EJjtcxyKrhs+0vE051/OTgEUX4WuiBL/ICHAYrwS4kvYnw5C44GMTpPmmDSxx/DQuTHwILwm5KZQfIUzLbfEyZqxU3bKor/PpfC8kv3w/JLUGyspy11BJOO3mGuuupqA/NNwRQN/IUe6o0pX668WbZ8GQzO3qXY/smgrgQIYqyHpCi0qCj198aJSmO9TDtzcC3K+t8+7V/HlI8KyVIUWpSNfzb+2+P6q9tUtv3ZCGTPP7gzpjQMLcpef3bu6488QVSnDF8/IA2aCvC2oygArY4JrQr26r3gCSd0Mu/BeEDUkSkibMYnn8LlmHo6hZUVxX9u7mzTCNYA3bJlCxuxHUXg/vPvb03Tpk3M5ZddZoYNv8+aZxRUbdLEiebQQw9jCaS2FlagaQdJEXEeq4K9qr8Ydr1z4YWIG9S8prP+KQIpIcnG3wZF9tn2l7hsZX47EG9Qmtd09vzLnn8QgZQmwUKrgn32/Muef7Fu05/p+vP/KVYsLmQGAjcAAAAASUVORK5CYII=;" vertex="1" parent="1">
          <mxGeometry x="240" y="210" width="162" height="17" as="geometry" />
        </mxCell>
        <mxCell id="tvpSU6sHkQA7kPhEmo6M-33" value="Top_Weights&lt;br&gt;θ_t" style="rounded=0;whiteSpace=wrap;html=1;direction=south;" vertex="1" parent="1">
          <mxGeometry x="230" y="340.23" width="60" height="60" as="geometry" />
        </mxCell>
        <mxCell id="tvpSU6sHkQA7kPhEmo6M-38" value="" style="edgeStyle=orthogonalEdgeStyle;rounded=0;orthogonalLoop=1;jettySize=auto;html=1;exitX=1;exitY=0.5;exitDx=0;exitDy=0;endArrow=none;" edge="1" parent="1" source="tvpSU6sHkQA7kPhEmo6M-19" target="tvpSU6sHkQA7kPhEmo6M-37">
          <mxGeometry relative="1" as="geometry">
            <mxPoint x="160" y="370.23" as="sourcePoint" />
            <mxPoint x="230" y="370.23" as="targetPoint" />
          </mxGeometry>
        </mxCell>
        <mxCell id="tvpSU6sHkQA7kPhEmo6M-37" value="&lt;font style=&quot;font-size: 12px;&quot;&gt;embedding&lt;/font&gt;" style="rounded=0;whiteSpace=wrap;html=1;fontSize=12;horizontal=0;" vertex="1" parent="1">
          <mxGeometry x="180" y="265.23" width="20" height="210" as="geometry" />
        </mxCell>
      </root>
    </mxGraphModel>
  </diagram>
</mxfile>
